<?xml version="1.0" encoding="utf-8"?>
<!-- Generator: Adobe Illustrator 21.0.2, SVG Export Plug-In . SVG Version: 6.00 Build 0)  -->
<svg version="1.1" id="Layer_1" xmlns="http://www.w3.org/2000/svg" xmlns:xlink="http://www.w3.org/1999/xlink" x="0px" y="0px"
	 width="46.9px" height="48px" viewBox="0 0 46.9 48" style="enable-background:new 0 0 46.9 48;" xml:space="preserve">
<style type="text/css">
	.st0{fill:#2D3142;}
</style>
<g>
	<path class="st0" d="M41.5,38c6.8-9.7,7.1-18.9,1-28.1C38.5,4,32.7,0.7,25.1,0v2.4c9,1.1,15.1,5.8,18,14.1c2.3,6.6,1.2,13-3.2,19.2
		l-1.1,1.5l-3.4-3.4l-3.1,11.4l11.4-3.1l-3-3.1L41.5,38z"/>
	<path class="st0" d="M3.4,30.5C1.5,24.2,2.6,18,6.9,12.2L8,10.7l3.4,3.4l3-11.4L2.9,5.8L6.1,9l-0.8,1.1c-6.8,9.8-7.1,19-0.9,28.1
		c3.9,5.9,9.7,9.2,17.3,9.8v-2.4C12.2,44.4,6.1,39.4,3.4,30.5z"/>
	<path class="st0" d="M15.2,23.3c0.4-3.4,2.2-5.7,5.4-6.8c2.3-0.8,4.7-0.5,6.9,1l0.6,0.4L26,19.8l7.4,2l-2-7.5l-1.8,2.1l-0.4-0.2
		c-4.1-2.6-7.8-2.8-11.5-0.4c-2.6,1.7-4.1,4.2-4.4,7.5H15.2z"/>
	<path class="st0" d="M31.6,24.6c-0.4,3.4-2.3,5.7-5.4,6.8c-2.3,0.8-4.6,0.4-6.9-1L18.7,30l2.1-1.9l-7.4-2l2,7.5l1.8-2.1l0.4,0.2
		c4.1,2.7,8,2.8,11.7,0.3c2.5-1.7,4-4.2,4.2-7.4C33.5,24.6,31.6,24.6,31.6,24.6z"/>
</g>
</svg>
