<?xml version="1.0" encoding="utf-8"?>
<!-- Generator: Adobe Illustrator 21.0.2, SVG Export Plug-In . SVG Version: 6.00 Build 0)  -->
<svg version="1.1" id="Layer_1" xmlns="http://www.w3.org/2000/svg" xmlns:xlink="http://www.w3.org/1999/xlink" x="0px" y="0px"
	 width="45.4px" height="45.4px" viewBox="0 0 45.4 45.4" style="enable-background:new 0 0 45.4 45.4;" xml:space="preserve">
<style type="text/css">
	.st0{fill:#2D3142;}
</style>
<g>
	<path class="st0" d="M41.2,0L19.1,0c-1.2,0-2.4,0-3.6,0C11.7,0,8,0,4.3,0C3.8,0,3.4,0.1,3,0.1C1.2,0.6,0,2.2,0,4.2l0,32.3l0,4.6
		c0,2.6,1.7,4.3,4.3,4.3h36.9c2.5,0,4.3-1.7,4.3-4.3V4.2C45.4,1.7,43.7,0,41.2,0z M43.1,41.2c0,1.3-0.7,2-2,2l-36.8,0
		c-1.4,0-2-0.7-2-2l0-36.7l0-0.3C2.3,3,3,2.3,4.1,2.3c3,0,5.9,0,8.9,0l28.1,0c1.4,0,2,0.7,2,2.1L43.1,41.2z"/>
	<polygon class="st0" points="22.1,11.1 19.8,8.7 14,14.5 11.3,11.8 8.9,14 14.1,19.2 	"/>
	<polygon class="st0" points="22.1,28.5 19.7,26.1 14,31.8 11.3,28.9 8.9,31.3 14.1,36.5 	"/>
	<rect x="25.9" y="14.4" class="st0" width="10.9" height="2.2"/>
	<rect x="25.9" y="31.7" class="st0" width="10.9" height="2.2"/>
</g>
</svg>
