<?xml version="1.0" encoding="utf-8"?>
<!-- Generator: Adobe Illustrator 21.0.2, SVG Export Plug-In . SVG Version: 6.00 Build 0)  -->
<svg version="1.1" id="Layer_1" xmlns="http://www.w3.org/2000/svg" xmlns:xlink="http://www.w3.org/1999/xlink" x="0px" y="0px"
	 viewBox="0 0 46.9 46.1" style="enable-background:new 0 0 46.9 46.1;" xml:space="preserve">
<style type="text/css">
	.st0{fill:#2D3142;}
</style>
<g>
	<path class="st0" d="M34,0.1c-0.5,0-1.1,0.2-1.4,1.3s-0.7,2.3-1.1,3.4c-0.3,1-0.7,2.1-1,3.1c-1.6,5.2-3,10.8-2.8,16.6
		c0.3,6,2.2,11.8,3.9,17.4c0.3,1.1,0.7,2.1,1,3.2c0.1,0.4,0.4,0.6,0.6,0.7c0.3,0.2,0.8,0.2,1.2,0.1c0.8-0.3,1.2-1,1-1.8
		c-0.3-1.1-0.7-2.2-1-3.4c-0.3-1-0.6-1.9-0.9-2.9c-1.5-4.9-2.7-9.4-2.8-14.2c-0.1-4.5,0.9-8.8,2.3-13.8c0.4-1.2,0.7-2.5,1.1-3.7
		c0.4-1.4,0.8-2.7,1.2-4.1c0.1-0.5,0.1-1-0.2-1.3C35,0.3,34.6,0.1,34,0.1z"/>
	<path class="st0" d="M12.6,46c0.5,0,1.1-0.2,1.4-1.3c0.3-1.1,0.7-2.3,1.1-3.4c0.3-1,0.7-2.1,1-3.1c1.6-5.2,3-10.8,2.8-16.6
		c-0.3-6-2.2-11.8-3.9-17.4c-0.3-1.1-0.7-2.1-1-3.2c-0.1-0.4-0.4-0.6-0.6-0.7c-0.3-0.2-0.8-0.2-1.2-0.1c-0.8,0.3-1.2,1-1,1.8
		c0.3,1.1,0.7,2.2,1,3.4c0.3,1,0.6,1.9,0.9,2.9c1.5,4.9,2.7,9.4,2.8,14.2C16,27,15,31.3,13.6,36.3c-0.4,1.2-0.7,2.5-1.1,3.7
		c-0.4,1.4-0.8,2.7-1.2,4.1c-0.1,0.5-0.1,1,0.2,1.3C11.6,45.8,12,46,12.6,46z"/>
	<path class="st0" d="M13.2,22.2l-4.6-3.8c-0.3-0.2-0.5-0.5-0.9-0.5c-0.5,0-0.9,0.4-0.9,0.9v2.6h-6c-0.5,0-0.9,0.4-0.9,0.9v1.7
		c0,0.5,0.4,0.9,0.9,0.9h6v2.6c0,0.4,0.3,0.9,0.9,0.9c0.4,0,0.6-0.2,0.9-0.5l4.6-3.8c0.3-0.3,0.5-0.5,0.5-0.9S13.5,22.5,13.2,22.2z"
		/>
	<path class="st0" d="M33.1,23c0,0.4,0.2,0.6,0.5,0.9l4.6,3.8c0.3,0.2,0.5,0.5,0.9,0.5c0.5,0,0.9-0.4,0.9-0.9v-2.6h6
		c0.5,0,0.9-0.4,0.9-0.9v-1.7c0-0.5-0.4-0.9-0.9-0.9h-6v-2.6c0-0.4-0.3-0.9-0.9-0.9c-0.4,0-0.6,0.2-0.9,0.5l-4.6,3.8
		C33.4,22.5,33.1,22.7,33.1,23z"/>
	<path class="st0" d="M23.5,46L23.5,46c-0.8,0-1.5-0.7-1.5-1.5v-43C22,0.7,22.6,0,23.5,0h0C24.3,0,25,0.7,25,1.5v43
		C25,45.4,24.3,46,23.5,46z"/>
</g>
</svg>
