<?xml version="1.0" encoding="utf-8"?>
<!-- Generator: Adobe Illustrator 21.0.2, SVG Export Plug-In . SVG Version: 6.00 Build 0)  -->
<svg version="1.1" id="Layer_1" xmlns="http://www.w3.org/2000/svg" xmlns:xlink="http://www.w3.org/1999/xlink" x="0px" y="0px"
	 width="51.7px" height="46px" viewBox="0 0 51.7 46" style="enable-background:new 0 0 51.7 46;" xml:space="preserve">
<style type="text/css">
	.st0{fill:#2D3142;}
</style>
<g>
	<path class="st0" d="M44.2,26.5c0.5-0.7,0.4-1.6-0.4-2.2c-2.5-1.9-5.1-3.8-7.7-5.6c-0.9-0.7-1.8-0.5-2.4,0.4
		C31.9,21.4,30,24,28,26.8c-0.6,0.8-0.5,1.7,0.2,2.3c0.7,0.5,1.7,0.3,2.3-0.4c0.2-0.3,0.5-0.6,0.7-0.9l3.8-5.1l-0.7,5.7
		C33.3,36.1,27.4,42,20,42.8C12.5,43.6,5.7,39.3,3.1,32c-0.2-0.7-0.7-1.3-1.5-1.3c-0.2,0-0.3,0-0.5,0.1c-0.4,0.1-0.7,0.4-0.9,0.8
		C0,32,0,32.5,0.1,33c0.6,1.5,1.2,3,2.1,4.3c4.1,6.4,11.8,9.8,19.1,8.4c8-1.5,14.2-7.5,15.8-15.2c0.2-0.8,0.3-1.7,0.4-2.6
		c0.1-0.4,0.1-0.9,0.2-1.4l0.4-2.4l2.7,1.9c0.4,0.3,0.8,0.6,1.2,0.8C42.8,27.3,43.7,27.2,44.2,26.5z"/>
	<path class="st0" d="M51.6,13c-0.3-0.8-0.5-1.5-0.9-2.2C47.4,3.8,40.1-0.5,32.3,0c-7.6,0.5-14.6,5.9-17,13.3
		c-0.4,1.3-0.7,2.6-0.9,4c-0.1,0.7-0.3,1.4-0.4,2.1l-0.5,2.2L11,20c-0.4-0.3-0.8-0.5-1.2-0.8c-0.3-0.2-0.7-0.3-1-0.3
		c-0.5,0-1,0.2-1.3,0.7C7,20.3,7.2,21.1,8,21.7c2.8,2.1,5.3,3.9,7.8,5.6c0.8,0.6,1.6,0.5,2.3-0.4c1.9-2.6,3.9-5.2,5.8-7.9
		c0.5-0.7,0.4-1.7-0.3-2.2c-0.7-0.5-1.7-0.4-2.3,0.4v0c-0.4,0.5-1.2,1.2-1.3,1.4l-3.1,2.9l0.6-4.2c0,0,0.1-0.4,0.1-0.7
		c0.8-4.5,3.4-8.5,7.3-11c3.9-2.5,8.5-3.2,12.9-2c5.3,1.5,9,4.9,10.9,10.3c0.3,1,1.1,1.4,2,1.1C51.5,14.8,51.9,13.9,51.6,13z"/>
</g>
</svg>
