<?xml version="1.0" encoding="utf-8"?>
<!-- Generator: Adobe Illustrator 21.0.2, SVG Export Plug-In . SVG Version: 6.00 Build 0)  -->
<svg version="1.1" id="Layer_1" xmlns="http://www.w3.org/2000/svg" xmlns:xlink="http://www.w3.org/1999/xlink" x="0px" y="0px"
	 width="54.5px" height="49px" viewBox="0 0 54.5 49" style="enable-background:new 0 0 54.5 49;" xml:space="preserve">
<style type="text/css">
	.st0{fill:#2D3142;}
</style>
<g>
	<g>
		<path class="st0" d="M45.8,31.8c1.2-0.9,1.3-2,0.9-3.3c-0.2-0.7-0.4-1.3-0.6-2c-0.2-0.5-0.1-1,0.3-1.4c0.5-0.6,1.1-1.1,1.6-1.7
			c1.1-1.4,1.1-2.6,0-4c-0.5-0.6-1-1.1-1.5-1.6c-0.4-0.4-0.5-0.9-0.4-1.5c0.2-0.7,0.5-1.4,0.7-2.1c0.5-1.7-0.1-2.8-1.7-3.6
			c-0.7-0.3-1.4-0.5-2-0.8c-0.6-0.2-0.9-0.6-1-1.2c-0.1-0.9-0.2-1.8-0.4-2.6c-0.3-1.2-1-1.9-2.2-2C38.9,4,38.4,4,38,4
			c-0.6,0-1.1,0.1-1.7,0.1c-0.5,0-0.9-0.2-1.2-0.6c-0.4-0.6-0.8-1.3-1.2-1.9c-1.1-1.5-2.3-1.8-4-0.9c-0.6,0.3-1.2,0.7-1.8,1.1
			c-0.5,0.3-1.1,0.3-1.6,0c-0.6-0.4-1.2-0.8-1.9-1.1c-1.6-0.8-2.8-0.5-3.9,0.9c-0.4,0.5-0.7,1-1,1.5c-0.5,0.8-1.1,1.1-2,1
			C16.9,4,16.2,4,15.5,4c-1.4,0-2.4,0.7-2.7,2.1c-0.2,0.6-0.3,1.3-0.3,1.9c0,1.1-0.5,1.7-1.6,2c-0.7,0.2-1.5,0.5-2.2,0.9
			c-1,0.6-1.5,1.5-1.2,2.7c0.2,0.9,0.5,1.8,0.8,2.8c0.2,0.5,0.1,1-0.3,1.3c-0.5,0.5-1,1-1.4,1.5c-1.4,1.6-1.4,2.9,0.1,4.5
			c0.4,0.5,0.9,0.9,1.3,1.4c0.4,0.4,0.5,0.9,0.3,1.4C8.1,27,8,27.6,7.8,28.2c-0.4,1.4-0.5,2.6,0.9,3.6c-2.6,2.6-5.3,5.3-7.9,7.9
			c2.9,0,5.7,0,8.6,0c0,2.9,0,5.7,0,8.5c0,0,0.1,0,0.1,0.1c3.1-3.2,6.3-6.3,9.5-9.5c0.2,0.3,0.4,0.5,0.6,0.8
			c0.4,0.6,0.7,1.2,1.2,1.7c1,1.3,2.2,1.5,3.7,0.8c0.6-0.3,1.2-0.7,1.8-1.1c0.7-0.5,1.3-0.4,2,0c0.6,0.4,1.2,0.8,1.8,1.1
			c1.4,0.7,2.6,0.4,3.6-0.8c0.4-0.5,0.7-1.1,1.1-1.6c0.2-0.3,0.5-0.6,0.8-1.1c3.2,3.2,6.4,6.4,9.5,9.6c0-2.8,0-5.6,0-8.5
			c2.9,0,5.7,0,8.7,0C51.1,37,48.4,34.4,45.8,31.8z M45.1,23.5c-1,1-1.4,2.3-0.9,3.7c0.2,0.6,0.4,1.3,0.6,1.9
			c0.2,0.7,0.1,0.9-0.6,1.2c-0.6,0.3-1.2,0.5-1.8,0.7c-1.6,0.5-2.3,1.7-2.5,3.3c-0.1,0.6-0.2,1.2-0.3,1.9c-0.1,0.5-0.4,0.7-0.9,0.7
			c-0.6,0-1.3-0.1-1.9-0.2c-1.6-0.2-2.8,0.3-3.7,1.7c-0.3,0.5-0.7,1.1-1,1.6c-0.5,0.7-0.7,0.7-1.4,0.3c-0.5-0.3-1-0.6-1.6-0.9
			c-1.3-0.8-2.6-0.8-4,0c-0.5,0.3-1,0.6-1.5,0.9c-0.8,0.4-1,0.4-1.6-0.4c-0.3-0.5-0.6-1-0.9-1.4c-0.9-1.4-2.1-1.9-3.8-1.7
			c-0.6,0.1-1.2,0.1-1.8,0.2c-0.5,0-0.8-0.2-0.9-0.7c-0.1-0.8-0.2-1.6-0.4-2.4c-0.2-1.3-0.9-2.1-2.1-2.6c-0.7-0.3-1.3-0.5-2-0.8
			c-0.8-0.3-0.9-0.5-0.7-1.4c0.2-0.7,0.5-1.5,0.7-2.2c0.3-1.1,0.1-2.1-0.7-2.9c-0.5-0.6-1.1-1.2-1.6-1.8c-0.5-0.6-0.5-0.9,0-1.5
			c0.4-0.5,0.8-0.9,1.3-1.3c1.2-1.1,1.4-2.4,0.9-3.9c-0.2-0.6-0.4-1.1-0.6-1.7c-0.2-0.7-0.1-0.9,0.6-1.2c0.6-0.3,1.2-0.5,1.9-0.7
			c1.5-0.5,2.3-1.6,2.4-3.2c0-0.5,0.1-1,0.2-1.4C14.8,6,15,5.9,16.1,6c0.7,0,1.4,0.1,2.1,0.1c1.1,0.1,2-0.4,2.7-1.3
			c0.4-0.5,0.7-1.1,1.1-1.7c0.7-1,0.9-1,1.9-0.4c0.6,0.3,1.2,0.7,1.8,1c1,0.5,2,0.6,3,0c0.7-0.4,1.3-0.8,2-1.2
			c0.8-0.4,1-0.4,1.5,0.4c0.3,0.4,0.5,0.8,0.8,1.2c0.9,1.7,2.4,2.3,4.2,2C37.7,6,38.1,6,38.5,6c0.9-0.1,1.1,0.1,1.3,1
			c0.1,0.7,0.2,1.4,0.3,2.1c0.2,1.3,0.9,2.1,2.1,2.6c0.7,0.3,1.4,0.5,2.1,0.8c0.7,0.3,0.8,0.5,0.6,1.2c-0.2,0.8-0.5,1.5-0.7,2.2
			c-0.4,1.2-0.1,2.3,0.8,3.2c0.5,0.5,1,1,1.5,1.6c0.5,0.6,0.5,0.9,0,1.4C46,22.6,45.5,23.1,45.1,23.5z"/>
		<path class="st0" d="M45.4,49l-9.8-9.9l-0.1,0.2c-0.2,0.2-0.4,0.4-0.5,0.7c-0.1,0.2-0.3,0.4-0.4,0.6c-0.2,0.3-0.4,0.7-0.7,1
			c-1.1,1.3-2.4,1.6-3.9,0.9c-0.6-0.3-1.1-0.6-1.9-1.1c-0.6-0.4-1.1-0.4-1.7,0c-0.6,0.4-1.2,0.8-1.8,1.1c-1.6,0.8-2.9,0.5-4-0.9
			c-0.3-0.4-0.5-0.7-0.8-1.1c-0.1-0.2-0.3-0.4-0.4-0.6c-0.1-0.2-0.3-0.3-0.4-0.5l-9.4,9.4l-0.5-0.2v-8.4H0l8.2-8.2
			c-1.3-1.2-1.1-2.7-0.7-3.7c0.1-0.3,0.2-0.5,0.2-0.8c0.1-0.3,0.2-0.6,0.3-1c0.1-0.4,0.1-0.8-0.2-1.1l-0.2-0.2
			c-0.4-0.4-0.8-0.8-1.2-1.2c-1.5-1.6-1.5-3.2-0.1-4.9c0.3-0.4,0.7-0.7,1-1.1l0.4-0.4c0.3-0.3,0.4-0.6,0.2-1L7.9,16
			c-0.2-0.7-0.5-1.5-0.6-2.3c-0.3-1.3,0.2-2.4,1.4-3c0.7-0.4,1.5-0.7,2.2-0.9C11.8,9.5,12.2,9,12.2,8c0-0.6,0.1-1.2,0.3-2
			c0.4-1.5,1.4-2.4,3-2.4c0.6,0,1.3,0.1,2.1,0.2C18.5,4,19,3.7,19.4,3c0.3-0.5,0.6-1,1-1.6c1.2-1.6,2.6-1.9,4.3-1
			c0.6,0.3,1.1,0.6,1.7,1l0.2,0.1c0.5,0.3,0.9,0.3,1.3,0c0.6-0.4,1.2-0.8,1.9-1.1c1.8-0.9,3.1-0.6,4.3,1c0.3,0.4,0.6,0.9,0.9,1.3
			l0.4,0.6c0.2,0.4,0.5,0.5,0.9,0.5l0.4,0c0.4,0,0.9-0.1,1.3-0.1c0.5,0,1,0,1.5,0c1.3,0.2,2.2,0.9,2.5,2.3c0.2,0.8,0.3,1.6,0.4,2.3
			l0,0.3c0.1,0.5,0.3,0.8,0.8,0.9l0.2,0.1c0.6,0.2,1.3,0.5,1.9,0.7c1.8,0.8,2.4,2,1.9,3.9c-0.2,0.7-0.4,1.4-0.7,2.1
			c-0.2,0.5-0.1,0.9,0.3,1.2l0.3,0.3c0.4,0.4,0.8,0.8,1.2,1.3c1.3,1.5,1.3,2.9,0,4.4c-0.4,0.5-0.8,0.9-1.2,1.3l-0.4,0.4
			c-0.3,0.3-0.4,0.7-0.2,1.1c0.2,0.7,0.4,1.3,0.6,2c0.4,1.4,0.2,2.6-0.8,3.4l8.3,8.2h-9.1V49z M1.4,39.5h8.2v8.3l9.3-9.4l0.4,0.5
			c0.2,0.2,0.3,0.4,0.4,0.6c0.1,0.2,0.3,0.4,0.4,0.7c0.2,0.4,0.5,0.7,0.7,1.1c0.9,1.2,1.9,1.4,3.3,0.7c0.6-0.3,1.2-0.7,1.8-1
			c0.8-0.5,1.6-0.5,2.4,0c0.7,0.5,1.3,0.8,1.8,1.1c1.3,0.6,2.3,0.4,3.2-0.7c0.2-0.3,0.4-0.6,0.7-1c0.1-0.2,0.3-0.4,0.4-0.6
			c0.2-0.2,0.3-0.4,0.5-0.7l0.5-0.7l9.3,9.3v-8.1h8.3l-7.7-7.7l0.3-0.2c1-0.7,1.2-1.7,0.8-3c-0.2-0.7-0.4-1.3-0.6-2
			c-0.2-0.7-0.1-1.2,0.4-1.7l0.4-0.4c0.4-0.4,0.8-0.8,1.2-1.3c1-1.3,1-2.4,0-3.6c-0.4-0.4-0.8-0.9-1.2-1.3L46.2,18
			c-0.5-0.5-0.6-1.1-0.4-1.8c0.2-0.7,0.5-1.4,0.7-2.1c0.4-1.6,0-2.5-1.6-3.2c-0.6-0.3-1.2-0.5-1.8-0.7l-0.2-0.1
			c-0.7-0.2-1.1-0.7-1.2-1.4l0-0.3c-0.1-0.8-0.2-1.5-0.4-2.3c-0.3-1.1-0.9-1.7-2-1.8c-0.4-0.1-0.9,0-1.3,0c-0.5,0-0.9,0.1-1.3,0.1
			l-0.4,0c-0.6,0.1-1.1-0.2-1.5-0.7l-0.4-0.6c-0.3-0.4-0.6-0.9-0.9-1.3c-1-1.4-2.1-1.6-3.6-0.8c-0.6,0.3-1.2,0.7-1.8,1.1
			c-0.6,0.4-1.3,0.4-1.9,0L26,2c-0.5-0.3-1.1-0.7-1.6-1c-1.5-0.8-2.5-0.5-3.5,0.8c-0.4,0.6-0.7,1-1,1.5c-0.5,0.9-1.3,1.3-2.4,1.1
			c-0.8-0.1-1.4-0.2-2-0.2c-1.3,0-2.1,0.6-2.4,1.9c-0.2,0.7-0.3,1.3-0.3,1.8c-0.1,1.3-0.6,2-1.8,2.3c-0.7,0.2-1.4,0.5-2.1,0.9
			c-0.9,0.5-1.3,1.3-1.1,2.4c0.2,0.7,0.4,1.5,0.6,2.2l0.2,0.5c0.2,0.6,0.1,1.2-0.4,1.6l-0.4,0.4c-0.3,0.3-0.7,0.7-1,1
			c-1.3,1.5-1.3,2.6,0.1,4.1c0.4,0.4,0.8,0.8,1.2,1.2l0.2,0.2c0.5,0.5,0.6,1.1,0.4,1.7c-0.1,0.3-0.2,0.6-0.3,1
			c-0.1,0.3-0.2,0.5-0.3,0.8c-0.5,1.5-0.3,2.5,0.8,3.3l0.3,0.2L1.4,39.5z M22.9,40.8c-0.4,0-0.7-0.2-1-0.8c-0.3-0.4-0.6-0.9-0.9-1.5
			c-0.8-1.3-1.9-1.8-3.5-1.6c-0.4,0.1-0.9,0.1-1.3,0.1l-0.5,0c-0.7,0.1-1.1-0.3-1.2-1c-0.1-0.7-0.2-1.4-0.3-2l0-0.3
			c-0.2-1.2-0.8-1.9-1.9-2.4c-0.3-0.1-0.6-0.2-0.9-0.3c-0.4-0.1-0.8-0.3-1.1-0.4c-1-0.4-1.1-0.8-0.8-1.8c0.1-0.3,0.2-0.6,0.3-0.9
			c0.1-0.4,0.3-0.8,0.4-1.2c0.3-1,0.1-1.9-0.6-2.6c-0.2-0.3-0.5-0.5-0.8-0.8c-0.3-0.3-0.6-0.6-0.9-0.9c-0.6-0.7-0.6-1.2,0-1.9
			c0.4-0.4,0.8-0.9,1.3-1.3c1-1,1.3-2.2,0.8-3.6l-0.1-0.2c-0.2-0.5-0.4-1-0.5-1.6c-0.2-0.9-0.1-1.2,0.8-1.6c0.6-0.3,1.3-0.5,1.9-0.7
			c1.4-0.5,2.1-1.4,2.2-2.9c0.1-0.5,0.1-1,0.2-1.5c0.2-1.3,0.5-1.5,1.8-1.4l0.7,0c0.5,0,1,0.1,1.5,0.1c1,0,1.8-0.3,2.4-1.2
			c0.2-0.3,0.4-0.6,0.6-0.9c0.2-0.2,0.3-0.5,0.5-0.7c0.8-1.1,1.2-1.2,2.3-0.5l0.6,0.3C25,3,25.4,3.3,25.8,3.5c0.9,0.5,1.8,0.5,2.8,0
			c0.3-0.2,0.7-0.4,1-0.6c0.3-0.2,0.7-0.4,1-0.6c0.9-0.5,1.3-0.4,1.9,0.4C32.8,3.1,33,3.5,33.3,4c0.8,1.5,2.1,2.1,3.9,1.8
			c0.4-0.1,0.8-0.1,1.3-0.1c1.1-0.1,1.4,0.2,1.6,1.2c0.1,0.4,0.1,0.8,0.2,1.2c0,0.3,0.1,0.6,0.1,0.9c0.2,1.2,0.8,1.9,1.9,2.4
			l0.6,0.2c0.5,0.2,1,0.4,1.5,0.6c0.8,0.3,1,0.7,0.7,1.5c-0.1,0.4-0.2,0.8-0.4,1.2c-0.1,0.3-0.2,0.7-0.3,1c-0.3,1.1-0.1,2,0.7,2.9
			c0.2,0.2,0.4,0.4,0.5,0.6c0.3,0.3,0.7,0.7,1,1c0.6,0.7,0.6,1.1,0,1.8c-0.4,0.5-0.9,0.9-1.3,1.4l-0.3-0.2l0.2,0.2
			c-1,1-1.2,2.1-0.8,3.4l0.1,0.2c0.2,0.6,0.4,1.2,0.6,1.8c0.2,0.8,0,1.2-0.8,1.6c-0.6,0.3-1.3,0.5-1.8,0.7c-1.4,0.5-2.1,1.5-2.3,3
			c0,0.5-0.1,0.9-0.2,1.4L40,36.2c-0.1,0.6-0.5,1-1.2,0.9l-0.3,0c-0.5,0-1.1-0.1-1.6-0.1c-1.5-0.2-2.6,0.3-3.4,1.5
			c-0.3,0.5-0.7,1.1-1,1.6c-0.6,0.8-1,0.9-1.8,0.4c-0.6-0.3-1.1-0.6-1.6-1c-1.2-0.8-2.4-0.8-3.7,0c-0.5,0.3-1,0.6-1.5,0.9
			C23.5,40.7,23.2,40.8,22.9,40.8z M18.2,36.4c1.4,0,2.5,0.6,3.3,1.9c0.3,0.6,0.6,1,0.9,1.4c0.4,0.6,0.5,0.6,1.2,0.3
			c0.5-0.3,1-0.6,1.5-0.9c1.5-0.9,2.9-0.9,4.3,0c0.5,0.3,1,0.6,1.5,0.9c0.6,0.3,0.7,0.3,1.1-0.2c0.4-0.5,0.7-1,1-1.5
			c0.9-1.4,2.2-2,4-1.8c0.5,0.1,1.1,0.1,1.6,0.1l0.3,0c0.3,0,0.5-0.1,0.6-0.4l0.1-0.5c0.1-0.4,0.1-0.9,0.2-1.3
			c0.2-1.8,1.1-3,2.7-3.5c0.5-0.2,1.2-0.4,1.8-0.7c0.5-0.2,0.6-0.3,0.4-0.9c-0.2-0.6-0.4-1.2-0.6-1.7l-0.1-0.2
			c-0.5-1.5-0.2-2.9,0.9-4l0,0c0.4-0.4,0.9-0.9,1.3-1.3c0.4-0.5,0.4-0.6,0-1.1c-0.3-0.3-0.6-0.7-1-1c-0.2-0.2-0.4-0.4-0.5-0.6
			c-0.9-1-1.2-2.2-0.8-3.5c0.1-0.4,0.2-0.7,0.3-1.1c0.1-0.4,0.3-0.8,0.4-1.2c0.2-0.6,0.1-0.6-0.4-0.8c-0.5-0.2-1-0.4-1.4-0.6
			L42.1,12c-1.3-0.5-2.1-1.5-2.3-2.8c0-0.3-0.1-0.6-0.1-0.9c-0.1-0.4-0.1-0.8-0.2-1.2c-0.1-0.7-0.2-0.8-0.9-0.7
			c-0.4,0-0.8,0.1-1.2,0.1c-2.1,0.3-3.6-0.4-4.6-2.1c-0.2-0.4-0.5-0.8-0.7-1.1c-0.4-0.6-0.5-0.6-1.1-0.3c-0.3,0.2-0.7,0.4-1,0.6
			c-0.3,0.2-0.7,0.4-1,0.6c-1.1,0.6-2.2,0.6-3.3,0c-0.4-0.2-0.8-0.5-1.2-0.7L23.8,3c-0.9-0.5-0.9-0.5-1.5,0.3
			C22.1,3.6,22,3.8,21.8,4c-0.2,0.3-0.4,0.6-0.6,1c-0.7,1-1.7,1.5-2.9,1.5c-0.5,0-1-0.1-1.5-0.1l-0.7,0c-1-0.1-1-0.1-1.2,0.9
			c-0.1,0.4-0.1,0.9-0.2,1.4c-0.2,1.7-1.1,2.9-2.6,3.5c-0.6,0.2-1.2,0.4-1.8,0.7C9.7,13,9.7,13,9.9,13.6c0.1,0.5,0.3,1,0.5,1.5
			l0.1,0.2c0.6,1.7,0.3,3.1-0.9,4.2C9,20,8.6,20.4,8.2,20.9c-0.4,0.5-0.4,0.6,0,1.1c0.3,0.3,0.6,0.6,0.9,0.9
			c0.3,0.3,0.5,0.5,0.8,0.8c0.8,0.9,1.1,2,0.7,3.2c-0.1,0.4-0.3,0.8-0.4,1.3c-0.1,0.3-0.2,0.6-0.3,0.9c-0.2,0.7-0.2,0.8,0.5,1
			c0.4,0.2,0.7,0.3,1.1,0.4c0.3,0.1,0.6,0.2,0.9,0.3c1.3,0.5,2.1,1.5,2.3,2.8l0,0.3c0.1,0.7,0.2,1.4,0.3,2c0.1,0.4,0.2,0.5,0.6,0.5
			l0.5,0c0.4,0,0.9-0.1,1.3-0.1C17.7,36.4,17.9,36.4,18.2,36.4z"/>
	</g>
	<g>
		<path class="st0" d="M27.3,9.6C27.3,9.6,27.3,9.6,27.3,9.6c-3.2,0-6.1,1.2-8.3,3.5c-2.2,2.2-3.4,5.2-3.4,8.3
			c0,3.1,1.2,6.1,3.4,8.3c2.2,2.2,5.2,3.4,8.3,3.4c0,0,0,0,0,0c3.2,0,6.1-1.2,8.3-3.4c2.2-2.2,3.4-5.2,3.4-8.3
			c0-3.1-1.2-6.1-3.5-8.3C33.3,10.9,30.4,9.6,27.3,9.6z M27.3,31.6C27.3,31.6,27.2,31.6,27.3,31.6c-5.6,0-10.2-4.6-10.2-10.2
			c0-2.7,1.1-5.3,3-7.2c1.9-1.9,4.5-3,7.2-3c0,0,0,0,0,0c2.7,0,5.3,1.1,7.2,3c1.9,1.9,3,4.5,3,7.2C37.4,27.1,33,31.6,27.3,31.6z"/>
		<path class="st0" d="M27.3,33.5c-3.2,0-6.3-1.2-8.5-3.5c-2.3-2.3-3.5-5.3-3.5-8.5c0-3.2,1.2-6.3,3.5-8.6c2.3-2.3,5.3-3.5,8.5-3.5
			h0c3.2,0,6.2,1.3,8.5,3.5c2.3,2.3,3.5,5.3,3.5,8.5c0,3.2-1.2,6.3-3.5,8.5C33.5,32.2,30.5,33.4,27.3,33.5z M27.3,9.9
			c-3.1,0-5.9,1.2-8.1,3.4c-2.2,2.2-3.4,5.1-3.3,8.1c0,3.1,1.2,5.9,3.4,8.1c2.2,2.1,5,3.3,8.1,3.3c3.1,0,6-1.2,8.1-3.4
			c2.2-2.2,3.3-5,3.3-8.1c0-3.1-1.2-5.9-3.4-8.1C33.2,11.1,30.3,9.9,27.3,9.9L27.3,9.9z M27.3,31.9L27.3,31.9
			c-5.8,0-10.5-4.7-10.5-10.5c0-2.8,1.1-5.5,3.1-7.4c2-2,4.6-3.1,7.4-3.1c2.8,0,5.4,1.1,7.4,3.1c2,2,3.1,4.6,3.1,7.4
			C37.7,27.3,33.1,31.9,27.3,31.9z M27.3,11.5c-2.7,0-5.1,1-7,2.9c-1.9,1.9-2.9,4.4-2.9,7c0,5.4,4.4,9.9,9.9,9.9l0,0.3l0-0.3
			c5.5,0,9.9-4.4,9.9-9.9c0-2.6-1-5.1-2.9-7C32.4,12.5,29.9,11.5,27.3,11.5z"/>
	</g>
</g>
</svg>
