<?xml version="1.0" encoding="utf-8"?>
<!-- Generator: Adobe Illustrator 21.0.2, SVG Export Plug-In . SVG Version: 6.00 Build 0)  -->
<svg version="1.1" id="Layer_1" xmlns="http://www.w3.org/2000/svg" xmlns:xlink="http://www.w3.org/1999/xlink" x="0px" y="0px"
	 width="65.1px" height="46.1px" viewBox="0 0 65.1 46.1" style="enable-background:new 0 0 65.1 46.1;" xml:space="preserve">
<style type="text/css">
	.st0{fill:#2D3142;}
</style>
<g>
	<path class="st0" d="M32.6,0c8.8,0,17.7,0,26.5,0c3.4,0,6,2.6,6,6c0,6.7,0,13.4,0,20.2c0,4.8,0,9.5,0,14.3c0,3.1-2.1,5.4-5.1,5.6
		c-2.4,0.1-4.8,0-7.2,0c-15.5,0-31,0-46.5,0c-0.7,0-1.4,0-2.1-0.2C1.7,45.3,0,43.2,0,40.6C0,29.1,0,17.5,0,6c0-3.4,2.6-6,6-6
		C14.9,0,23.8,0,32.6,0z M32.6,43.4C32.6,43.4,32.6,43.4,32.6,43.4c9,0,18,0,27,0c0.6,0,1.2-0.2,1.6-0.5c0.9-0.5,1.2-1.4,1.2-2.4
		c0-3,0-6.1,0-9.1c0-8.5,0-16.9,0-25.4c0-1.2-0.5-2.1-1.4-2.8c-0.7-0.5-1.5-0.5-2.3-0.5c-13,0-25.9,0-38.9,0c-4.6,0-9.2,0-13.7,0
		C4.1,2.7,2.7,4,2.7,5.8c0,11.6,0,23.2,0,34.9c0,1.6,1.2,2.7,2.8,2.7C14.5,43.4,23.5,43.4,32.6,43.4z"/>
	<path class="st0" d="M56.9,17.8c0,4.3-3.9,8.1-8.2,8c-4.2,0-8-3.9-8-8.2c0.1-4.3,3.9-8.1,8.3-8C53.4,9.7,57,13.8,56.9,17.8z
		 M50.1,12.5c-2.8-0.8-5.7,0.9-6.4,3.6c-0.8,3.1,0.8,6,3.7,6.8c2.8,0.7,5.9-0.7,6.5-3.2c-1.6-0.2-3.2-0.4-4.8-0.6
		c-1.5-0.2-1.9-1-1.2-2.4C48.6,15.3,49.3,14,50.1,12.5z M54.2,17c-0.2-1.3-0.6-2.4-1.6-3.3c-0.5,1-1,1.9-1.6,2.9
		C52.1,16.8,53.1,16.9,54.2,17z"/>
	<path class="st0" d="M35.2,24.4c0,4,0,7.9,0,11.9c0,1-0.4,1.5-1.2,1.6c-0.9,0.1-1.5-0.5-1.6-1.5c0-1.7,0-3.4,0-5.1
		c0-6.2,0-12.5,0-18.7c0-0.1,0-0.2,0-0.3c0-0.9,0.6-1.5,1.4-1.5c0.8,0,1.4,0.6,1.4,1.5c0,2.9,0,5.7,0,8.6
		C35.2,22.1,35.2,23.3,35.2,24.4z"/>
	<path class="st0" d="M27.1,28.5c0-2.6,0-5.3,0-7.9c0-1,0.5-1.6,1.3-1.6c0.8,0,1.4,0.6,1.4,1.6c0,5.3,0,10.5,0,15.8
		c0,0.6-0.2,1.1-0.8,1.4c-0.5,0.2-1.1,0.2-1.4-0.2c-0.3-0.3-0.5-0.8-0.5-1.2C27,33.8,27.1,31.1,27.1,28.5
		C27.1,28.5,27.1,28.5,27.1,28.5z"/>
	<path class="st0" d="M48.7,32.6c-2.2,0-4.4,0-6.5,0c-0.9,0-1.4-0.4-1.5-1.2c-0.1-0.8,0.5-1.5,1.5-1.5c1.4,0,2.8,0,4.2,0
		c3,0,6,0,9,0c0.4,0,0.9,0.2,1.3,0.4c0.4,0.3,0.5,0.9,0.3,1.4c-0.2,0.6-0.7,0.9-1.3,0.9c-1.8,0-3.5,0-5.3,0
		C49.7,32.6,49.2,32.6,48.7,32.6z"/>
	<path class="st0" d="M16.2,29.8c0-2.2,0-4.3,0-6.5c0-0.4,0.2-1,0.5-1.3c0.3-0.4,0.9-0.4,1.4-0.2c0.6,0.3,0.8,0.8,0.8,1.4
		c0,2,0,4,0,6c0,2.4,0,4.8,0,7.2c0,1.1-0.9,1.8-1.8,1.4c-0.6-0.2-0.9-0.7-0.9-1.5C16.2,34.2,16.2,32,16.2,29.8z"/>
	<path class="st0" d="M48.8,38c-2.2,0-4.5,0-6.7,0c-1.1,0-1.8-1-1.3-1.9c0.3-0.6,0.8-0.8,1.5-0.8c3.2,0,6.3,0,9.5,0
		c1.2,0,2.5,0,3.7,0c1,0,1.5,0.5,1.5,1.4c0,0.8-0.6,1.3-1.5,1.3C53.2,38,51,38,48.8,38z"/>
	<path class="st0" d="M24.3,31.2c0,1.8,0,3.5,0,5.3c0,0.9-0.5,1.5-1.3,1.5c-0.8,0-1.4-0.6-1.4-1.5c0-3.5,0-7,0-10.6
		c0-0.6,0.2-1.1,0.8-1.4c0.5-0.2,1.1-0.2,1.4,0.2c0.3,0.3,0.5,0.8,0.5,1.2C24.4,27.7,24.3,29.5,24.3,31.2L24.3,31.2z"/>
	<path class="st0" d="M10.8,33.8c0-0.8,0-1.7,0-2.5c0-0.9,0.5-1.5,1.3-1.5c0.8,0,1.4,0.6,1.4,1.4c0,1.8,0,3.5,0,5.3
		c0,0.9-0.6,1.4-1.4,1.4c-0.8,0-1.3-0.6-1.3-1.4C10.8,35.6,10.8,34.7,10.8,33.8z"/>
</g>
</svg>
