<?xml version="1.0" encoding="utf-8"?>
<!-- Generator: Adobe Illustrator 21.0.2, SVG Export Plug-In . SVG Version: 6.00 Build 0)  -->
<svg version="1.1" id="Layer_1" xmlns="http://www.w3.org/2000/svg" xmlns:xlink="http://www.w3.org/1999/xlink" x="0px" y="0px"
	 width="28px" height="19px" viewBox="0 0 28 19" style="enable-background:new 0 0 28 19;" xml:space="preserve">
<style type="text/css">
	.st0{fill:#FFFFFF;}
</style>
<g>
	<path class="st0" d="M23.9,7.1L23.9,7.1c-0.1,0-0.2-0.1-0.2-0.2c-1.2-2.6-3.8-3.9-6.6-3.3c-0.1,0-0.2,0-0.3-0.1
		C15.2,1.2,13,0,10.4,0C10,0,9.6,0,9.2,0.1C5.6,0.5,2.8,3.5,2.6,7.3c0,0.2-0.1,0.3-0.3,0.4c-2.2,1.5-3,4.3-1.8,6.6
		C1.5,16.1,3,17,5,17.1c0.2,0,0.4,0,0.6,0c0.2,0,0.3,0,0.5,0h0.5l-0.6-1.8l-0.5,0c-0.3,0-0.6,0-0.8,0c-1.3-0.2-2.3-0.9-2.8-2.1
		C1.6,12,1.8,10.8,2.6,9.8C3,9.3,3.5,9,4.1,8.8l0.3-0.1l0-0.3c-0.1-1.4,0.2-2.7,1-3.9c0.9-1.3,2-2.1,3.5-2.5
		c1.2-0.3,2.5-0.2,3.6,0.2c1.6,0.6,2.7,1.8,3.4,3.4L16,6l0.4-0.2C17.5,5.1,18.8,5,20,5.5C21.1,6,22,7,22.2,8.3l0.1,0.3l0.3,0
		c0.1,0,0.2,0,0.3,0c1.6,0.3,2.8,1.7,2.8,3.2c0,1.7-1.1,3.1-2.7,3.5c-0.2,0-0.5,0.1-0.9,0.1c-0.4,0-0.8,0-1.1,0l-0.5,0L20,17.1
		l0.9,0c0.6,0,1.2,0,1.9,0c2.5-0.2,4.5-2.3,4.7-4.8C27.6,9.9,26.2,7.8,23.9,7.1z"/>
	<path class="st0" d="M16.7,13.6l0,0.4c0,0.4-0.1,0.8-0.2,1.1c-0.2,0.5-0.5,0.9-0.8,1.3c-0.4,0.4-0.8,0.6-1.3,0.8
		c-0.5,0.2-0.9,0.2-1.5,0.2c-1.7-0.2-3.1-1.8-2.9-3.5c0.1-1.6,1.6-3.1,2.9-3.1l0,1.5l3.2-2.4l-3.2-2.4V9c-1.4,0.1-2.7,0.9-3.6,2
		c-0.9,1.2-1.2,2.7-0.9,4.1c0.3,1.3,1,2.4,2.2,3.1c0.8,0.5,1.8,0.8,2.7,0.8c0.4,0,0.7,0,1.1-0.1c2.7-0.6,4-3,3.9-4.9l0-0.4H16.7z"/>
</g>
</svg>
