<?xml version="1.0" encoding="utf-8"?>
<!-- Generator: Adobe Illustrator 21.0.2, SVG Export Plug-In . SVG Version: 6.00 Build 0)  -->
<svg version="1.1" id="Layer_1" xmlns="http://www.w3.org/2000/svg" xmlns:xlink="http://www.w3.org/1999/xlink" x="0px" y="0px"
	 width="26px" height="22px" viewBox="0 0 26 22" style="enable-background:new 0 0 26 22;" xml:space="preserve">
<style type="text/css">
	.st0{fill:#FFFFFF;}
</style>
<g>
	<path class="st0" d="M13,21.7c-3.1,0-6.1,0-9.2,0c-0.4,0-0.7-0.1-0.9-0.4c-2.1-2.6-3.1-5.6-2.9-9c0.3-5.9,4.6-10.8,10.4-12
		C16-0.9,21.9,1.9,24.5,7c1.1,2.2,1.6,4.5,1.4,7c-0.2,2.7-1.2,5.2-2.9,7.3c-0.2,0.3-0.5,0.4-0.9,0.4C19.1,21.7,16,21.7,13,21.7
		C13,21.7,13,21.7,13,21.7z M13,19.9c2.9,0,5.7,0,8.6,0c0.2,0,0.3-0.1,0.5-0.2c1.9-2.7,2.6-5.8,1.9-9c-1.3-6-7.2-9.8-13.2-8.6
		c-4.9,1-8.5,5-9,10c-0.3,2.8,0.5,5.3,2.1,7.6c0.1,0.2,0.3,0.3,0.5,0.3C7.3,19.9,10.1,19.9,13,19.9z"/>
	<path class="st0" d="M13,17.6c-0.7,0-1.3-0.4-1.6-1.1c-0.2-0.6-0.1-1.4,0.5-1.8c2-1.7,4-3.3,6-5c0.4-0.3,1-0.3,1.3,0
		c0.4,0.4,0.4,0.9,0,1.3c-1.5,1.9-3.1,3.7-4.6,5.5c-0.1,0.1-0.2,0.2-0.3,0.3C14,17.4,13.5,17.6,13,17.6z"/>
	<path class="st0" d="M7.3,7.2C7.2,7.3,7.1,7.5,7,7.6c-0.2,0.1-0.4,0-0.5-0.1C6.1,7.3,5.9,7,5.6,6.8c-0.2-0.2-0.2-0.5,0-0.7
		C5.8,5.9,6.1,5.8,6.3,6c0.3,0.3,0.6,0.6,0.9,0.9C7.3,7,7.3,7.1,7.3,7.2z"/>
	<path class="st0" d="M20.7,6.4c0,0.4-0.9,1.3-1.3,1.3c-0.2,0-0.4-0.1-0.4-0.3c-0.1-0.1-0.1-0.4,0-0.5c0.2-0.3,0.5-0.6,0.8-0.8
		c0.1-0.1,0.4-0.1,0.5,0C20.5,6.1,20.6,6.3,20.7,6.4z"/>
	<path class="st0" d="M22,13.7c-0.2,0-0.3,0-0.5,0c-0.3,0-0.5-0.2-0.5-0.5c0-0.3,0.2-0.5,0.5-0.5c0.4,0,0.7,0,1.1,0
		c0.3,0,0.5,0.3,0.4,0.5c0,0.3-0.2,0.5-0.5,0.5C22.3,13.7,22.2,13.7,22,13.7z"/>
	<path class="st0" d="M3.9,13.7c-0.2,0-0.3,0-0.5,0c-0.3,0-0.5-0.2-0.5-0.5c0-0.3,0.2-0.5,0.5-0.5c0.3,0,0.7,0,1,0
		c0.3,0,0.5,0.3,0.5,0.5c0,0.3-0.2,0.5-0.5,0.5C4.3,13.7,4.1,13.7,3.9,13.7z"/>
	<path class="st0" d="M13.6,3.9c0,0.2,0,0.3,0,0.5c0,0.3-0.3,0.5-0.5,0.5c-0.3,0-0.5-0.2-0.5-0.5c0-0.3,0-0.6,0-0.9
		c0-0.3,0.2-0.5,0.5-0.5c0.3,0,0.5,0.2,0.5,0.5C13.7,3.6,13.6,3.8,13.6,3.9C13.6,3.9,13.6,3.9,13.6,3.9z"/>
</g>
</svg>
