<svg id="Layer_1" data-name="Layer 1" xmlns="http://www.w3.org/2000/svg" xmlns:xlink="http://www.w3.org/1999/xlink" width="221.21" height="655.4" viewBox="0 0 221.21 655.4"><defs><style>.cls-1,.cls-2{fill:none;}.cls-2{clip-path:url(#clip-path);}.cls-3{fill:#fff;}.cls-4{clip-path:url(#clip-path-2);}.cls-5{clip-path:url(#clip-path-3);}</style><clipPath id="clip-path"><rect class="cls-1" x="-31" y="33.5" width="101.3" height="76"/></clipPath><clipPath id="clip-path-2" transform="translate(31 -0.7)"><path class="cls-1" d="M24,67.5a4.3,4.3,0,1,0,4.3,4.3A4.33,4.33,0,0,0,24,67.5Z"/></clipPath><clipPath id="clip-path-3" transform="translate(31 -0.7)"><rect class="cls-2" x="-31" y="33.5" width="101.3" height="76"/></clipPath></defs><title>header</title><path id="SVGID" class="cls-3" d="M24,67.5a4.3,4.3,0,1,0,4.3,4.3A4.33,4.33,0,0,0,24,67.5Z" transform="translate(31 -0.7)"/><g class="cls-4"><rect id="SVGID-2" data-name="SVGID" class="cls-3" y="32.8" width="101.3" height="76"/><g class="cls-5"><rect class="cls-3" y="32.8" width="101.3" height="76"/><polygon id="triangle36" class="cls-3" points="108 26.2 95.5 26.7 97.4 23.6 108 26.2"/></g><g class="cls-4"><rect class="cls-3" x="46.8" y="64.5" width="15.3" height="12.1"/></g><path class="cls-3" d="M66.7,61a4.11,4.11,0,0,0-1.6-3,4.33,4.33,0,0,0-2.6-1.1H4.2A4.14,4.14,0,0,0,0,61v41.7a4.23,4.23,0,0,0,4.2,4.2H35.4a16,16,0,0,1-.5-3.9v-.3H3.7V94.6l4.6-4.2.5-.5c.7-.6,1.4-1.3,2.1-1.9l4.4-4.1L16.7,85c.6.5,1.2,1,1.9,1.5l.1.1,8.8,7.3,2.3,1.9,2.3-2-2.3-1.9L18.7,82.7,15.4,80C13.1,82,3.6,90.7,3.6,90.7V61H61.9V86.1l-3.4-2.9-4.4-3.8-4.8-4.1-.2-.1-9.5,8.2L29.7,92,32,93.9l4.6-4,3-2.6,9.5-8.2.2.1,1.8,1.5,1.1.9,1,.9.9.8,4.4,3.8L61.9,90h0a22.72,22.72,0,0,1,2.6,2.7,20.69,20.69,0,0,1,2,2.7c0-1.2,0-2.3.1-3.5C66.9,81.4,66.8,71.2,66.7,61Z" transform="translate(31 -0.7)"/><path class="cls-3" d="M66.6,103.8H63a15.47,15.47,0,0,1-.6,3.1h3.9a29.63,29.63,0,0,0,.3-3.1Z" transform="translate(31 -0.7)"/><path class="cls-3" d="M50.3,101a2.3,2.3,0,0,0-1.2,1.8v.3a2.43,2.43,0,0,0,2.4,2.4,2.33,2.33,0,0,0,2.1-1.3h0l.8-1.4L58,96.2,50.3,101Z" transform="translate(31 -0.7)"/><path class="cls-3" d="M51.9,87.8v3.7a10.78,10.78,0,0,1,6.7,2.7l2.7-2.6A15.79,15.79,0,0,0,51.9,87.8Z" transform="translate(31 -0.7)"/><path class="cls-3" d="M50,91.5V87.8a15.25,15.25,0,0,0-14.2,15v.3a15,15,0,0,0,.5,3.7h3.8a11.64,11.64,0,0,1-.6-3.8v-.3A11.89,11.89,0,0,1,50,91.5Z" transform="translate(31 -0.7)"/><path class="cls-3" d="M66.6,102a14.33,14.33,0,0,0-3.9-9.1l-.6.6-2,2a13.85,13.85,0,0,1,2,3.3,11.4,11.4,0,0,1,.8,3.3h3.7Z" transform="translate(31 -0.7)"/></g><path class="cls-3" d="M35.1,147.3a20.82,20.82,0,0,1,9,2c-1-1-2-1.9-3.1-2.9.2-.2.4-.3.5-.4l10.3-10.3a2.85,2.85,0,0,0,.8-1.4,2.35,2.35,0,0,0-1.2-2.6,2.31,2.31,0,0,0-2.9.5l-9.9,9.9a7,7,0,0,0-.8,1c-3.8-3.8-7.4-7.4-11.2-11.1.1-.1.3-.2.4-.3l10.5-10.5a2.41,2.41,0,1,0-3.4-3.4l-6.3,6.3c-1.5,1.5-3,3.1-4.7,4.7-1.3-1.3-2.5-2.6-3.8-3.9l-.4.4c-2,2-4.1,4-6.1,6.1a17.89,17.89,0,0,0-4.9,17.8,47.31,47.31,0,0,0,2,5L-.3,164.4,5,169.8l10.3-10.3A22.47,22.47,0,0,1,35.1,147.3Z" transform="translate(31 -0.7)"/><path class="cls-3" d="M34.2,149.8a16.5,16.5,0,1,0,16.5,16.5A16.52,16.52,0,0,0,34.2,149.8Zm0,31.6a15.1,15.1,0,1,1,15.1-15.1A15.15,15.15,0,0,1,34.2,181.4Z" transform="translate(31 -0.7)"/><path class="cls-3" d="M29.3,165.9a2.65,2.65,0,0,0-1.9-.9,2.47,2.47,0,0,0-2.1.7,4.42,4.42,0,0,0-.8.9v-.7a5.39,5.39,0,0,1,.5-2.1,3,3,0,0,1,1.3-1.2,5.57,5.57,0,0,1,3-.3v-1h-1a4.67,4.67,0,0,0-3.7,1.4,7.11,7.11,0,0,0-1.2,4.5,6.05,6.05,0,0,0,.4,2.4A3.33,3.33,0,0,0,25,171a3.45,3.45,0,0,0,1.8.5,3.1,3.1,0,0,0,3.3-3.3A4,4,0,0,0,29.3,165.9Zm-1.1,3.9a1.68,1.68,0,0,1-1.4.6,1.9,1.9,0,0,1-1.5-.8,2.62,2.62,0,0,1-.5-1.7,1.61,1.61,0,0,1,.6-1.3,2,2,0,0,1,1.5-.6,1.68,1.68,0,0,1,1.4.6,2.46,2.46,0,0,1,.5,1.5A4.71,4.71,0,0,1,28.2,169.8Z" transform="translate(31 -0.7)"/><path class="cls-3" d="M32.7,170.2a2.91,2.91,0,0,0,2.5,1.2,2.79,2.79,0,0,0,2.5-1.2,6.68,6.68,0,0,0,.8-3.9,7,7,0,0,0-.9-3.9,3.2,3.2,0,0,0-5,0,6.68,6.68,0,0,0-.8,3.9A6.59,6.59,0,0,0,32.7,170.2Zm.9-6.8a1.57,1.57,0,0,1,3,0,7.39,7.39,0,0,1,.4,3,7.7,7.7,0,0,1-.4,3,1.58,1.58,0,0,1-1.5,1.1,1.5,1.5,0,0,1-1.5-1.1,11.45,11.45,0,0,1,0-6Z" transform="translate(31 -0.7)"/><polygon class="cls-3" points="77.9 165.4 75.1 165.4 75.1 162.5 74.3 162.5 74.3 165.4 71.5 165.4 71.5 166.1 74.3 166.1 74.3 168.9 75.1 168.9 75.1 166.1 77.9 166.1 77.9 165.4"/><path class="cls-3" d="M33,247.9H9.7a2.89,2.89,0,0,1-2.4-1.1A32.6,32.6,0,0,1,0,224a33.05,33.05,0,0,1,62.3-13.3A33.07,33.07,0,0,1,58.4,247a2.74,2.74,0,0,1-2.2.9Zm0-4.5H54.9a1.43,1.43,0,0,0,1.2-.6A28.53,28.53,0,0,0,27.5,198,28.58,28.58,0,0,0,4.7,223.4,27.78,27.78,0,0,0,10,242.7a1.51,1.51,0,0,0,1.4.7C18.5,243.3,25.8,243.4,33,243.4Z" transform="translate(31 -0.7)"/><path class="cls-3" d="M28.7,233.2a3.14,3.14,0,0,0,2.9,2h0a3.17,3.17,0,0,0,2.5-1.2l.2-.3c.1-.1.2-.3.3-.4l3.1-3.8c2.1-2.5,4.2-5.1,6.3-7.6a1.57,1.57,0,0,0,0-2.2,1.61,1.61,0,0,0-1.1-.5,1.5,1.5,0,0,0-1.1.4L29.5,229.8A3.07,3.07,0,0,0,28.7,233.2Z" transform="translate(31 -0.7)"/><path class="cls-3" d="M18.5,211.2a2.84,2.84,0,0,1-.9,1,1.72,1.72,0,0,1-1.4-.1,19.86,19.86,0,0,1-2.1-2,1.24,1.24,0,0,1,.1-1.7c.5-.5,1.1-.7,1.6-.3.8.7,1.6,1.5,2.4,2.3C18.4,210.6,18.4,210.8,18.5,211.2Z" transform="translate(31 -0.7)"/><path class="cls-3" d="M52.5,209.1c-.1,1-2.4,3.3-3.3,3.2a2.1,2.1,0,0,1-1.1-.7,1.72,1.72,0,0,1,.1-1.4,9.47,9.47,0,0,1,2-2,1.69,1.69,0,0,1,1.4-.1C52,208.3,52.2,208.8,52.5,209.1Z" transform="translate(31 -0.7)"/><path class="cls-3" d="M55.9,227.6H54.6a1.24,1.24,0,0,1-1.3-1.2,1.4,1.4,0,0,1,1.2-1.4,13.1,13.1,0,0,1,2.8,0,1.19,1.19,0,0,1,1.1,1.4,1.16,1.16,0,0,1-1.2,1.2Z" transform="translate(31 -0.7)"/><path class="cls-3" d="M10,227.6H8.8a1.26,1.26,0,0,1-1.3-1.3A1.24,1.24,0,0,1,8.7,225h2.5a1.34,1.34,0,0,1,1.3,1.4,1.4,1.4,0,0,1-1.3,1.3A4.48,4.48,0,0,0,10,227.6Z" transform="translate(31 -0.7)"/><path class="cls-3" d="M34.7,202.8V204a1.21,1.21,0,0,1-1.4,1.2,1.32,1.32,0,0,1-1.3-1.3v-2.4a1.3,1.3,0,1,1,2.6,0,6.15,6.15,0,0,1,.1,1.3Z" transform="translate(31 -0.7)"/><path class="cls-3" d="M43.9,298.1a5.51,5.51,0,0,0-2-2.7c-.3-.3-.4-.5,0-.9a45.34,45.34,0,0,0,5-5.7,11.88,11.88,0,0,0,1.3-2.5,1.7,1.7,0,0,0-1.8-2.3,5.63,5.63,0,0,0-3,1.2l-1.2.9c-.1.1-.3.3-.5.1s0-.3.1-.4a8.23,8.23,0,0,0,1.2-2.5,3,3,0,0,0-.2-2.6,1.8,1.8,0,0,0-1.6-.9,8.09,8.09,0,0,0-3.7,1.2,13.25,13.25,0,0,0-2.5,1.6c-.2.1-.4.4-.6.1s0-.4.2-.6a10.53,10.53,0,0,0,1.7-2.9c1.2-2.9-.6-5.1-3.7-4.7a4.33,4.33,0,0,0-.5.1c-.2,0-.4.2-.5-.1s.1-.4.2-.5a5.37,5.37,0,0,0,1-1.6,2.5,2.5,0,0,0-.3-2.5,1.9,1.9,0,0,0-2.2-.8,8.79,8.79,0,0,0-3.4,1.9c-.1.1-.2.2-.3.2s-.3.3-.5.1,0-.3.1-.4c.2-.4.5-.7.7-1.1a1.2,1.2,0,0,0,0-1.5,1.1,1.1,0,0,0-1.4-.3,10.31,10.31,0,0,0-2.8,1.8,35.83,35.83,0,0,0-2.9,2.6c-.3.3-.4.2-.7,0a6.69,6.69,0,0,0-2.8-2.1l.5-.5L27.6,259a2,2,0,0,1,3.2,0l24.6,24.6a2,2,0,0,1,0,3.2L44.6,297.6A1.16,1.16,0,0,0,43.9,298.1Z" transform="translate(31 -0.7)"/><path class="cls-3" d="M26.2,288c-4.5-4.5-9-9-13.5-13.4-.4-.4-.4-.6,0-.9a9.43,9.43,0,0,0,1-1,2,2,0,0,1,2.7,0l.3.3,24.4,24.4c1.2,1.2,1.2,2.2,0,3.3-.4.4-.7,1-1.1,1s-.8-.6-1.2-1C34.7,296.5,30.5,292.2,26.2,288Z" transform="translate(31 -0.7)"/><path class="cls-3" d="M9.5,276.9a3.92,3.92,0,0,0,0,5.5c.6.7,1.3,1.3,1.9,2a12.28,12.28,0,0,1,2.3,4,4.7,4.7,0,0,1-1.3,5,18.51,18.51,0,0,1-4.8,3.5,15.92,15.92,0,0,0-6.1,4.8,6.64,6.64,0,0,0-.6,7.6,10.49,10.49,0,0,0,3,3.3,6.61,6.61,0,0,0,8.1.3,14.14,14.14,0,0,0,4.9-5.7,22.64,22.64,0,0,1,2.6-4.2c2.5-3.1,5.1-3.6,8.5-1.4a18.46,18.46,0,0,1,3.7,3.1,3.92,3.92,0,0,0,4.9.5,11.37,11.37,0,0,0,1.6-1.5c.4-.3.4-.5,0-.9L24.8,289.4,12.3,276.9c-.5-.5-.9-1.3-1.4-1.2S10,276.4,9.5,276.9ZM11,303.2a4,4,0,0,1,0,5.6,3.92,3.92,0,1,1,0-5.6Z" transform="translate(31 -0.7)"/><path class="cls-3" d="M41.7,361.9a23.36,23.36,0,1,0-18.3,8.9,22.77,22.77,0,0,0,12.9-3.9l17.4,17.3,5.2-5.2Zm.3-14.4a18.6,18.6,0,1,1-18.6-18.6A18.69,18.69,0,0,1,42,347.5Z" transform="translate(31 -0.7)"/><path class="cls-3" d="M.7,403.6l-.7.1v.7c0,12.9,2.7,23.6,8.4,32.8a46.22,46.22,0,0,0,16.2,16.1,4,4,0,0,0,2.1.7,3.68,3.68,0,0,0,2.1-.8c.6-.5,1.4-1,2-1.5.8-.6,1.6-1.1,2.4-1.8a53.31,53.31,0,0,0,17.7-27.4,62.88,62.88,0,0,0,2.3-18.2v-.7l-.7-.1c-7.8-1.4-14.9-4.9-21.8-8.4l-.1-.1c-2.7-1.4-5.8-1.2-8.9.4C14.3,399.4,7.8,402.3.7,403.6Zm29.4-4.3a80.16,80.16,0,0,0,18.4,7.5c.2.1.6.5.6.6h0c-.4,13.4-4.2,24.1-11.6,32.8a51.71,51.71,0,0,1-6.4,6c-1.1.9-2.2,1.9-3.3,2.8a1.76,1.76,0,0,1-1.3.6,2.69,2.69,0,0,1-1.6-.7A46.11,46.11,0,0,1,6.2,422.2a94.78,94.78,0,0,1-2.3-14.3c0-1.1.2-1.2.9-1.4A71.15,71.15,0,0,0,23,399.1,7.45,7.45,0,0,1,30.1,399.3Z" transform="translate(31 -0.7)"/><polygon class="cls-3" points="66.4 410.4 56.3 426 49.3 419.8 46.6 422.6 57.1 432.1 69.7 412.6 66.4 410.4"/><path class="cls-3" d="M48.2,501.7H14.8a11.9,11.9,0,1,1,0-23.8,12.22,12.22,0,0,1,5.6,1.4l1.4.8.5-1.5a17.49,17.49,0,0,1,16.4-11.5,17.3,17.3,0,0,1,17,13.6,24.58,24.58,0,0,1,2.8-.2A20.52,20.52,0,0,0,52.8,470a20.06,20.06,0,0,0-14.1-5.7,20.46,20.46,0,0,0-18.5,12,14.69,14.69,0,1,0-5.5,28.3H51C49.3,503.7,48.2,502.8,48.2,501.7Z" transform="translate(31 -0.7)"/><path class="cls-3" d="M51.4,504.5H14.8a14.8,14.8,0,1,1,0-29.6,14,14,0,0,1,5.4,1,20.3,20.3,0,0,1,18.5-12,20.06,20.06,0,0,1,14.1,5.7,19.74,19.74,0,0,1,5.7,10.6v.1h-.1a24.58,24.58,0,0,0-2.8.2h-.1v-.1a17.3,17.3,0,0,0-33.2-2.1l-.6,1.6-1.5-.8a11.88,11.88,0,1,0-5.5,22.4H48.2v.1c0,1,1,2,2.7,2.7ZM14.8,475.1a14.6,14.6,0,0,0,0,29.2H50.6c-1.6-.7-2.5-1.7-2.5-2.6H14.8a12,12,0,1,1,5.6-22.6l1.3.7.5-1.4a17.61,17.61,0,0,1,16.5-11.6,17.18,17.18,0,0,1,17,13.6,24.52,24.52,0,0,1,2.7-.2,20.22,20.22,0,0,0-5.7-10.4,20,20,0,0,0-14-5.7A20.23,20.23,0,0,0,20.3,476v.1h-.1A16.16,16.16,0,0,0,14.8,475.1Z" transform="translate(31 -0.7)"/><path class="cls-3" d="M69.4,485.9a2.84,2.84,0,0,0-.7-1.7c-1.6-1.7-5.5-2.6-9.4-2.6h-.7a24.52,24.52,0,0,0-2.7.2c-3.7.5-6.7,1.9-6.7,4v13.8a2.2,2.2,0,0,0,.6,1.5c1.3,1.6,4.6,2.5,8.1,2.7h1.5c3.9,0,7.9-.9,9.4-2.6a2.19,2.19,0,0,0,.7-1.7V486.1C69.4,486.2,69.4,486,69.4,485.9ZM59.2,497.4a19.3,19.3,0,0,1-6.2-.9c-1.5-.5-2.1-1.1-2.1-1.4v-2a17.82,17.82,0,0,0,8.2,1.7,23.1,23.1,0,0,0,6.1-.8,6.67,6.67,0,0,0,2.1-.9v2c0,.3-.5.9-2.1,1.4l-.9.3A18.28,18.28,0,0,1,59.2,497.4Zm8.3-7.9v1c0,.3-.5.9-2.1,1.4h-.1a18.25,18.25,0,0,1-6.1.9,19.3,19.3,0,0,1-6.2-.9c-1.5-.5-2.1-1.1-2.1-1.4v-2a17.82,17.82,0,0,0,8.2,1.7,22.65,22.65,0,0,0,5.3-.6,10,10,0,0,0,2.6-.9c.1-.1.2-.1.3-.2v1Zm-14.5-5a17.65,17.65,0,0,1,2.9-.7,32.51,32.51,0,0,1,3.3-.2,19.83,19.83,0,0,1,3.5.3,17.63,17.63,0,0,1,2.7.7c1.5.5,2.1,1.1,2.1,1.4s-.4.7-1.3,1.1a6.88,6.88,0,0,1-.8.3,11.7,11.7,0,0,1-2,.5,27.22,27.22,0,0,1-4.2.4,19.3,19.3,0,0,1-6.2-.9c-1.5-.5-2.1-1.1-2.1-1.4S51.5,485,53,484.5Zm14.5,15.2c0,.3-.5.9-2.1,1.4-.4.1-.8.3-1.3.4a23.84,23.84,0,0,1-4.9.5,21.79,21.79,0,0,1-6-.8c-.1,0-.2,0-.2-.1-1.5-.5-2.1-1.1-2.1-1.4v-2a17.82,17.82,0,0,0,8.2,1.7c1.2,0,2.4-.1,3.5-.2a12.23,12.23,0,0,0,4.2-1.2c.2-.1.3-.2.5-.3v2Z" transform="translate(31 -0.7)"/><path class="cls-3" d="M59.2,504.1H57.7c-3.9-.2-7-1.3-8.2-2.8a2.45,2.45,0,0,1-.6-1.6V485.9c0-2,2.6-3.6,6.9-4.2a24.52,24.52,0,0,1,2.7-.2h.7c4.3,0,8.1,1,9.5,2.6a2.5,2.5,0,0,1,.8,1.8v13.8a2.9,2.9,0,0,1-.8,1.8C67.3,503.1,63.5,504.1,59.2,504.1Zm0-22.3h-.7a24.52,24.52,0,0,0-2.7.2c-4.1.6-6.6,2-6.6,3.9v.4h0v4.5h0v4.5h0v4.1a2.39,2.39,0,0,0,.5,1.4c1.1,1.4,4.2,2.4,8,2.6h1.5c4.2,0,7.9-1,9.3-2.5a2.57,2.57,0,0,0,.7-1.6v-4.1h0v-4.5h0v-4.5h0v-.4a2.13,2.13,0,0,0-.7-1.6C67.1,482.8,63.5,481.8,59.2,481.8Zm0,20.4a21.26,21.26,0,0,1-6-.8.35.35,0,0,1-.2-.1c-1.5-.5-2.2-1.2-2.2-1.6v-2.3l.2.1a18.34,18.34,0,0,0,8.2,1.6c1.2,0,2.4-.1,3.5-.2a15.08,15.08,0,0,0,4.2-1.1c.2-.1.3-.2.5-.2l.2-.1v2.3c0,.4-.7,1-2.2,1.6-.4.1-.8.3-1.3.4A34.67,34.67,0,0,1,59.2,502.2Zm-8.1-4.3v1.8c0,.2.5.8,2,1.3.1,0,.1,0,.2.1a20.53,20.53,0,0,0,5.9.8,24.61,24.61,0,0,0,4.9-.5,5,5,0,0,0,1.3-.4c1.5-.5,2-1.1,2-1.3v-1.8c-.1,0-.2.1-.3.1a18.69,18.69,0,0,1-4.3,1.2,20,20,0,0,1-3.5.2A17.42,17.42,0,0,1,51.1,497.9Zm8.1-.3a18.46,18.46,0,0,1-6.2-.9c-1.5-.5-2.2-1.2-2.2-1.6v-2.3l.2.1a18.34,18.34,0,0,0,8.2,1.6,22.54,22.54,0,0,0,6.1-.8,6.67,6.67,0,0,0,2.1-.9l.2-.1V495c0,.4-.7,1-2.2,1.6l-.9.3A17,17,0,0,1,59.2,497.6Zm-8.1-4.3v1.8c0,.2.5.8,2,1.3a18.25,18.25,0,0,0,6.1.9,20.64,20.64,0,0,0,5.2-.6l.9-.3c1.5-.5,2-1.1,2-1.3v-1.8a18.19,18.19,0,0,1-1.9.8,22.76,22.76,0,0,1-6.2.8A18.49,18.49,0,0,1,51.1,493.3Zm8.1-.3a18.46,18.46,0,0,1-6.2-.9c-1.5-.5-2.2-1.2-2.2-1.6v-2.3l.2.1a18.34,18.34,0,0,0,8.2,1.6,22,22,0,0,0,5.3-.6,8.15,8.15,0,0,0,2.5-.9c.1-.1.2-.1.3-.2l.2-.1v2.3c0,.4-.7,1-2.2,1.6h-.1A15.06,15.06,0,0,1,59.2,493Zm-8.1-4.3v1.8c0,.2.5.8,2,1.3a18.25,18.25,0,0,0,6.1.9,17.63,17.63,0,0,0,6-.9h.1c1.5-.5,2-1.1,2-1.3v-1.8a.1.1,0,0,0-.1.1,8.81,8.81,0,0,1-2.6.9,22.65,22.65,0,0,1-5.3.6A18.65,18.65,0,0,1,51.1,488.7Zm8.1-.3a18.46,18.46,0,0,1-6.2-.9c-1.5-.5-2.2-1.2-2.2-1.6s.7-1,2.2-1.6h0a19.06,19.06,0,0,1,3-.7,32.51,32.51,0,0,1,3.3-.2,19.83,19.83,0,0,1,3.5.3,15,15,0,0,1,2.7.7c1.5.5,2.2,1.2,2.2,1.6s-.5.8-1.4,1.2a6.88,6.88,0,0,1-.8.3,11.7,11.7,0,0,1-2,.5A20.24,20.24,0,0,1,59.2,488.4Zm-6.1-3.8c-1.5.5-2,1.1-2,1.3s.5.8,2,1.3a18.25,18.25,0,0,0,6.1.9,17.28,17.28,0,0,0,4.1-.4,11.7,11.7,0,0,0,2-.5,4.88,4.88,0,0,0,.7-.3c.9-.4,1.2-.8,1.2-1s-.5-.8-2-1.3a10.71,10.71,0,0,0-2.7-.6,18.84,18.84,0,0,0-3.4-.2c-1.1,0-2.2.1-3.2.2a11.54,11.54,0,0,0-2.8.6Z" transform="translate(31 -0.7)"/><path class="cls-3" d="M56.1,560.1H51a5.42,5.42,0,0,0-5.5,5.5v.8H38.9a5.78,5.78,0,0,0-1.6-4.6,6.19,6.19,0,0,0-4.7-1.7v-6.6H44.7c1.6,0,3.5,0,5.3-.1a13.08,13.08,0,0,0,11.3-15.8c-1.3-5.9-5.8-9.7-12-10.1-.3,0-.3,0-.4-.3a18.89,18.89,0,0,0-20.5-12.3,18.8,18.8,0,0,0-15.6,12.4c-.1.3-.1.3-.3.3a11,11,0,0,0-1.8.2,12.55,12.55,0,0,0-8.2,5.1,13.16,13.16,0,0,0,11,20.7H29.1v6.6a5.79,5.79,0,0,0-4.7,1.6,5.57,5.57,0,0,0-1.6,4.6H16.2v-.7a5.48,5.48,0,0,0-5.5-5.5H5.6a5.48,5.48,0,0,0-5.5,5.5v5.1a5.42,5.42,0,0,0,5.5,5.5h5a5.4,5.4,0,0,0,5.4-4.5,8.08,8.08,0,0,0,.1-1.6V570h6.6v.8a5.6,5.6,0,0,0,5.5,5.4h5.2a5.47,5.47,0,0,0,5.4-4.5,7.57,7.57,0,0,0,.1-1.5V570h6.6v.8a5.48,5.48,0,0,0,5.5,5.5h5a5.42,5.42,0,0,0,5.5-5.5h0v-5.1A5.42,5.42,0,0,0,56.1,560.1Zm2,7.2v3.2a2.1,2.1,0,0,1-2.2,2.2h-5a2,2,0,0,1-2.1-2v-5.1a2.11,2.11,0,0,1,2.1-2.1H56a2,2,0,0,1,2.1,2.1Zm-29.8,5.4a2,2,0,0,1-2.1-2.2v-5a1.94,1.94,0,0,1,2.1-2.1h5a1.94,1.94,0,0,1,2.1,2.1v5.1a2,2,0,0,1-2.1,2C31.6,572.7,29.9,572.7,28.3,572.7ZM30.7,550H13.2a9.6,9.6,0,0,1-8.1-4.1,9.35,9.35,0,0,1-.9-9.4,9.43,9.43,0,0,1,7.7-5.6,5.74,5.74,0,0,1,1.2-.1h.2c1.3,0,1.8-.3,2.2-1.5a15.17,15.17,0,0,1,6.7-8.6,15.58,15.58,0,0,1,13.9-1.5,16.11,16.11,0,0,1,9.8,10.1c.4,1.3.8,1.6,2.2,1.6a9.73,9.73,0,0,1,10,9.5,9.19,9.19,0,0,1-2.7,6.8,9.76,9.76,0,0,1-7,3H35.9ZM9.1,572.7H5.7a2.1,2.1,0,0,1-2.2-2.2v-4.8a2.07,2.07,0,0,1,2.1-2.2h4.9a2,2,0,0,1,2.1,2.2v4.8a2,2,0,0,1-2.2,2.2Z" transform="translate(31 -0.7)"/><path class="cls-3" d="M27.1,42.8l-3.9,3.9L0,23.6l2.9-2.9a1.52,1.52,0,0,1,2,0Z" transform="translate(31 -0.7)"/><path class="cls-3" d="M33.2,23.9l-3.9,3.9-9.4-9.4a1.52,1.52,0,0,1,0-2l1.9-1.9a1.52,1.52,0,0,1,2,0Z" transform="translate(31 -0.7)"/><path class="cls-3" d="M20.7,23.5l-2.9,2.9a1.52,1.52,0,0,1-2,0l-1.9-1.9a1.52,1.52,0,0,1,0-2l1.9-1.9a1.52,1.52,0,0,1,2,0Z" transform="translate(31 -0.7)"/><path class="cls-3" d="M46,23.9l-2.9,2.9a1.52,1.52,0,0,1-2,0L18.9,4.6,22.8.7Z" transform="translate(31 -0.7)"/><path class="cls-3" d="M23.2,46.7l-3.9-3.9L34.7,27.4a1.52,1.52,0,0,1,2,0l2.9,2.9Z" transform="translate(31 -0.7)"/><path class="cls-3" d="M22.2,32.9l-2-1.9a1.52,1.52,0,0,1,0-2l9-9,3.9,3.9-9,9A1.23,1.23,0,0,1,22.2,32.9Z" transform="translate(31 -0.7)"/><path class="cls-3" d="M9.3,20.1,6.4,17.2,22.8.7l3.9,3.9L11.3,20.1A1.52,1.52,0,0,1,9.3,20.1Z" transform="translate(31 -0.7)"/><polygon class="cls-3" points="91.5 12.7 92.7 15.8 97.3 14.5 97.3 35.4 101.1 35.4 101.1 10.5 98.5 10.5 91.5 12.7"/><path class="cls-3" d="M86.2,10.9c-6.7,0-11.7,5.5-11.7,12.8v.1c0,7.4,4.9,12.7,11.7,12.7S97.9,31,97.9,23.7v-.1C97.9,16.3,93,10.9,86.2,10.9ZM78.4,23.6c0-4.5,2.7-9.3,7.7-9.3s7.8,4.8,7.8,9.3v.1c0,4.5-2.7,9.3-7.7,9.3s-7.8-4.7-7.8-9.4Z" transform="translate(31 -0.7)"/><polygon class="cls-3" points="159.1 29.3 152.2 10.6 152.2 10.6 149.4 10.6 142.4 29.3 135 10.7 135 10.6 130.7 10.6 140.9 35.5 140.9 35.6 143.8 35.6 150.7 17.4 157.6 35.5 157.6 35.6 160.5 35.6 170.7 10.6 166.6 10.6 159.1 29.3"/><polygon class="cls-3" points="177.8 24.6 192.7 24.6 192.7 21.2 177.8 21.2 177.8 14.1 194.4 14.1 194.4 10.6 174 10.6 174 35.4 194.5 35.4 194.5 31.9 177.8 31.9 177.8 24.6"/><path class="cls-3" d="M186,23.2a6,6,0,0,0,2.8-5.2v-.1a5.5,5.5,0,0,0-2-4.3,11.1,11.1,0,0,0-7.4-2.3H167.7V36.1H180c6.2,0,10.2-2.8,10.2-7.2v-.1C190.3,27.1,189.5,24.7,186,23.2Zm.4,5.6h0c0,2.4-2.4,3.8-6.3,3.8h-8.5V25.3h7.8C182.1,25.3,186.4,25.8,186.4,28.8ZM185,18.1c0,2.8-3,3.8-5.7,3.8h-7.6V14.8h7.8c3.4,0,5.5,1.2,5.5,3.3Z" transform="translate(31 -0.7)"/><path class="cls-3" d="M63,622.2a6.9,6.9,0,0,0-3.5-5.9,10.79,10.79,0,0,0-6.5-8.2h.6a21.5,21.5,0,1,0-43-.3c-3.5,1.5-6.5,4.7-7.1,8.5A6.58,6.58,0,0,0,0,622.2a6.77,6.77,0,0,0,3.5,5.9,11,11,0,0,0,10.9,9.1,2.58,2.58,0,0,0,2.6-2.6v-25a2.58,2.58,0,0,0-2.6-2.6h-.3a18,18,0,0,1,36,.3H48.6a2.58,2.58,0,0,0-2.6,2.6v24.7a2.58,2.58,0,0,0,2.6,2.6,6.61,6.61,0,0,0,2.4-.3v5.9a6.38,6.38,0,0,1-5.9,6.2H38.9A5.55,5.55,0,0,0,28,650.5a5.79,5.79,0,0,0,5.6,5.6,5.49,5.49,0,0,0,5.3-4.1H45a9.6,9.6,0,0,0,9.1-9.4v-7.4a12.13,12.13,0,0,0,5.3-7.7C61.8,626.9,63,624.5,63,622.2Z" transform="translate(31 -0.7)"/></svg>