<?xml version="1.0" encoding="utf-8"?>
<!-- Generator: Adobe Illustrator 21.0.2, SVG Export Plug-In . SVG Version: 6.00 Build 0)  -->
<svg version="1.1" id="Layer_1" xmlns="http://www.w3.org/2000/svg" xmlns:xlink="http://www.w3.org/1999/xlink" x="0px" y="0px"
	 width="93.5px" height="70px" viewBox="0 0 93.5 70" style="enable-background:new 0 0 93.5 70;" xml:space="preserve">
<style type="text/css">
	.st0{fill:#FFFFFF;}
</style>
<g>
	<circle class="st0" cx="33.3" cy="20.3" r="6.2"/>
	<path class="st0" d="M92.1,49.5c0.4,0.5,0.8,0.9,1.2,1.4c0-0.6,0-1.3,0-1.9c0.3-14.6,0.3-29.4,0-44c-0.1-0.6-0.4-2.3-1.9-3.6
		c-1.1-1-2.4-1.3-3.1-1.4H4.9C2.2,0,0,2.2,0,4.9v59.6c0,2.7,2.2,4.9,4.9,4.9l43.3,0c-0.3-1.3-0.4-2.6-0.4-3.9H3.1V52.4l17.6-16.2
		l5.5,4.4l15.3,12.7l27.9-24.1l19.3,16.7C90.6,47.8,91.6,48.9,92.1,49.5z M41.4,50.4L24.9,36.7l-4.1-3.3L3.1,49.7V3.9h85.5l0,39.1
		L69.3,26.4L41.4,50.4z"/>
	<path class="st0" d="M88.7,67c-0.1,1-0.3,2-0.6,3h4c0.2-1,0.4-2,0.5-3H88.7z"/>
	<path class="st0" d="M73,68.2c1,0,1.9-0.6,2.4-1.5l0.3-0.6l0,0l4.6-8.3l-8,4.9l0,0l-0.6,0.3c-0.7,0.4-1.3,1.2-1.4,2
		c0,0.1,0,0.2,0,0.3C70.3,67,71.5,68.2,73,68.2z"/>
	<path class="st0" d="M82.3,53l2.8-2.7c-3.1-2.6-6.9-4.1-11.1-4.4v3.8C77.8,50,80.1,51.3,82.3,53z"/>
	<path class="st0" d="M70.6,49.7v-3.9c-9.8,0.9-17.6,9.3-17.8,19.3l0,0.4c0,1.5,0.2,3,0.5,4.4h4c-0.4-1.5-0.7-3-0.7-4.5
		c0-0.1,0-0.2,0-0.2l0-0.1C56.8,57.4,63,50.6,70.6,49.7z"/>
	<path class="st0" d="M88.6,63.5h3.8c-0.4-4-1.9-7.7-4.6-10.8l-2.7,2.7c1,1.2,1.8,2.6,2.4,4.1C88.1,60.8,88.5,62.2,88.6,63.5z"/>
</g>
</svg>
