<?xml version="1.0" encoding="utf-8"?>
<!-- Generator: Adobe Illustrator 21.0.2, SVG Export Plug-In . SVG Version: 6.00 Build 0)  -->
<svg version="1.1" id="Layer_1" xmlns="http://www.w3.org/2000/svg" xmlns:xlink="http://www.w3.org/1999/xlink" x="0px" y="0px"
	 width="18px" height="18px" viewBox="0 0 18 18" style="enable-background:new 0 0 18 18;" xml:space="preserve">
<style type="text/css">
	.st0{fill:#FFFFFF;}
</style>
<g>
	<path class="st0" d="M7.1,16c-0.8,0-1.6,0-2.4,0c-0.1,0-0.3,0.1-0.4,0.2c-0.4,0.4-0.8,0.8-1.2,1.2c-0.7,0.7-1.8,0.7-2.6,0
		c-0.7-0.7-0.7-1.8,0-2.5c0.4-0.4,0.8-0.8,1.2-1.2C1.9,13.6,2,13.4,2,13.2c0-1.3,0-2.6,0-4c0-1.3,0.2-2.6,0.7-3.8
		C2.8,5.2,3,4.9,3.2,4.6c0.3-0.4,0.6-0.8,0.9-1.1c0.2-0.3,0.2-0.3,0.5,0c1.1,1.1,2.2,2.2,3.3,3.3c2.2,2.2,4.4,4.4,6.6,6.6
		c0.3,0.3,0.3,0.3,0,0.6c-0.5,0.3-0.9,0.7-1.4,1c-0.7,0.5-1.5,0.7-2.3,0.9c-0.7,0.1-1.4,0.2-2,0.2C8.3,16.1,7.7,16,7.1,16z"/>
	<path class="st0" d="M11,0c0.9,0.1,1.9,1,1.9,1.9c0,0.2-0.1,0.5-0.3,0.7C11.4,3.8,10.2,5,9,6.1c-0.1,0.1-0.2,0.1-0.3,0
		C8,5.5,7.4,4.9,6.7,4.2C6.6,4.1,6.6,4,6.7,3.9c1.2-1.2,2.4-2.4,3.7-3.6C10.5,0.1,10.8,0.1,11,0z"/>
	<path class="st0" d="M18,7c-0.1,0.2-0.2,0.4-0.3,0.6c-1.2,1.2-2.4,2.4-3.5,3.6c-0.2,0.2-0.3,0.2-0.5,0c-0.6-0.6-1.2-1.2-1.8-1.8
		c-0.2-0.2-0.2-0.3,0-0.4c1.1-1.1,2.2-2.2,3.3-3.3C15.8,5,16.3,5,17,5.4C17.5,5.8,17.9,6.3,18,7z"/>
</g>
</svg>
