<?xml version="1.0" encoding="utf-8"?>
<!-- Generator: Adobe Illustrator 21.0.2, SVG Export Plug-In . SVG Version: 6.00 Build 0)  -->
<svg version="1.1" id="Layer_1" xmlns="http://www.w3.org/2000/svg" xmlns:xlink="http://www.w3.org/1999/xlink" x="0px" y="0px"
	 width="22px" height="22px" viewBox="0 0 22 22" style="enable-background:new 0 0 22 22;" xml:space="preserve">
<style type="text/css">
	.st0{fill:#FFFFFF;}
</style>
<g>
	<g>
		<path class="st0" d="M17.3,15.7c-0.1-0.5-0.5-0.8-0.8-1.1c-0.1-0.1-0.1-0.2,0-0.3c0.7-0.7,1.4-1.4,2-2.2c0.2-0.3,0.4-0.6,0.5-1
			c0.1-0.5-0.2-0.9-0.7-0.9c-0.4,0-0.8,0.2-1.2,0.5c-0.2,0.1-0.3,0.2-0.5,0.4c-0.1,0-0.1,0.1-0.2,0c-0.1-0.1,0-0.1,0-0.2
			c0.2-0.3,0.4-0.6,0.5-1c0.1-0.4,0.1-0.7-0.1-1c-0.1-0.2-0.3-0.4-0.6-0.4c-0.5,0-1,0.2-1.5,0.5c-0.3,0.2-0.7,0.4-1,0.6
			c-0.1,0-0.1,0.2-0.2,0.1c-0.1-0.1,0-0.2,0.1-0.2c0.3-0.4,0.5-0.7,0.7-1.1c0.5-1.1-0.2-2-1.4-1.8c-0.1,0-0.1,0-0.2,0
			c-0.1,0-0.1,0.1-0.2,0c0-0.1,0-0.1,0.1-0.2c0.2-0.2,0.3-0.4,0.4-0.6c0.1-0.3,0.1-0.7-0.1-1c-0.2-0.3-0.5-0.4-0.9-0.3
			C11.4,4.4,11,4.7,10.5,5c0,0-0.1,0.1-0.1,0.1c-0.1,0-0.1,0.1-0.2,0c-0.1-0.1,0-0.1,0-0.2c0.1-0.1,0.2-0.3,0.3-0.4
			c0.1-0.2,0.2-0.4,0-0.6c-0.2-0.2-0.4-0.2-0.6-0.1C9.5,4,9.2,4.3,8.9,4.5c-0.4,0.3-0.8,0.7-1.2,1c-0.1,0.1-0.2,0.1-0.3,0
			C7.1,5.2,6.8,4.9,6.3,4.7c0.1-0.1,0.1-0.1,0.2-0.2C8,3.1,9.4,1.7,10.8,0.3c0.4-0.4,0.8-0.4,1.3,0c3.2,3.2,6.4,6.4,9.7,9.7
			c0.4,0.4,0.4,0.8,0,1.3c-1.4,1.4-2.8,2.8-4.2,4.2C17.4,15.5,17.3,15.6,17.3,15.7z"/>
		<path class="st0" d="M10.3,11.7C8.5,9.9,6.8,8.2,5,6.4C4.9,6.3,4.9,6.2,5,6.1c0.1-0.1,0.3-0.3,0.4-0.4c0.3-0.3,0.7-0.3,1,0
			c0,0,0.1,0.1,0.1,0.1c3.2,3.2,6.4,6.4,9.6,9.6c0.5,0.5,0.5,0.9,0,1.3c-0.1,0.1-0.3,0.4-0.4,0.4c-0.2,0-0.3-0.2-0.5-0.4
			C13.6,15,12,13.4,10.3,11.7z"/>
		<path class="st0" d="M3.7,7.3c-0.6,0.6-0.6,1.6,0,2.2C4,9.8,4.2,10,4.5,10.3c0.4,0.5,0.7,1,0.9,1.6c0.2,0.8,0,1.4-0.5,2
			c-0.5,0.6-1.2,1-1.9,1.4c-0.9,0.4-1.8,1.1-2.4,1.9c-0.7,0.9-0.8,2-0.2,3c0.3,0.5,0.7,0.9,1.2,1.3c1,0.8,2.2,0.8,3.2,0.1
			c0.9-0.6,1.5-1.3,1.9-2.3c0.3-0.6,0.6-1.1,1-1.6c1-1.2,2-1.4,3.3-0.6c0.5,0.3,1,0.8,1.5,1.2c0.5,0.5,1.3,0.6,1.9,0.2
			c0.2-0.2,0.4-0.4,0.6-0.6c0.2-0.1,0.1-0.2,0-0.3c-1.8-1.8-3.5-3.5-5.3-5.3C8.1,10.6,6.5,9,4.8,7.3C4.7,7.1,4.5,6.8,4.3,6.8
			C4.1,6.9,3.9,7.2,3.7,7.3z M4.3,17.7c0.6,0.6,0.6,1.6,0,2.2c-0.6,0.6-1.6,0.6-2.2,0c-0.6-0.6-0.6-1.6,0-2.2
			C2.7,17.1,3.7,17.1,4.3,17.7z"/>
	</g>
</g>
</svg>
