<?xml version="1.0" encoding="utf-8"?>
<!-- Generator: Adobe Illustrator 21.0.2, SVG Export Plug-In . SVG Version: 6.00 Build 0)  -->
<svg version="1.1" id="Layer_1" xmlns="http://www.w3.org/2000/svg" xmlns:xlink="http://www.w3.org/1999/xlink" x="0px" y="0px"
	 viewBox="0 0 54 54" style="enable-background:new 0 0 54 54;" xml:space="preserve">
<style type="text/css">
	.st0{fill:#2D3142;}
</style>
<g>
	<g>
		<path class="st0" d="M46.6,40.9H7.4c-0.6,0-1.2-0.5-1.2-1.2V14.3c0-0.6,0.5-1.2,1.2-1.2h3.5v2.3H8.5v23.1h37v-4.6h2.3v5.8
			C47.8,40.4,47.3,40.9,46.6,40.9z"/>
	</g>
	<g>
		<path class="st0" d="M40.7,49.1H1.4c-0.6,0-1.2-0.5-1.2-1.2V22.5c0-0.6,0.5-1.2,1.2-1.2h3.5v2.3H2.6v23.1h37v-4.6h2.3v5.8
			C41.9,48.6,41.4,49.1,40.7,49.1z"/>
	</g>
	<g>
		<path class="st0" d="M52.6,4.9H13.3c-0.6,0-1.2,0.5-1.2,1.2v25.4c0,0.6,0.5,1.2,1.2,1.2h39.3c0.6,0,1.2-0.5,1.2-1.2V6.1
			C53.7,5.4,53.2,4.9,52.6,4.9z M51.4,7.2v20.8l-9.1-9.1c-0.2-0.2-0.5-0.3-0.7-0.3s-0.5,0.1-0.7,0.3l-4,4l-9.8-10.7
			c-0.2-0.2-0.4-0.3-0.7-0.3c-0.3,0-0.5,0.1-0.7,0.3L14.4,22.4V7.2H51.4z M14.4,25.2l11.7-10.8l9.2,10l-2.2,2.2
			c-0.4,0.4-0.4,1.1,0,1.5s1.1,0.4,1.5,0l6.9-6.9l9.2,9.2H14.4V25.2z"/>
		<circle class="st0" cx="42.5" cy="12" r="2.9"/>
	</g>
</g>
</svg>
