<?xml version="1.0" encoding="utf-8"?>
<!-- Generator: Adobe Illustrator 21.0.2, SVG Export Plug-In . SVG Version: 6.00 Build 0)  -->
<svg version="1.1" id="Layer_1" xmlns="http://www.w3.org/2000/svg" xmlns:xlink="http://www.w3.org/1999/xlink" x="0px" y="0px"
	 viewBox="0 0 54 54" style="enable-background:new 0 0 54 54;" xml:space="preserve">
<style type="text/css">
	.st0{fill:none;}
	.st1{fill:#2D3142;}
</style>
<g>
	<path class="st0" d="M18.4,41c0.6-0.6,1-1.5,1-2.5v-1.2c0-1-0.3-1.8-1-2.5s-1.5-1-2.5-1h-2.7V42h2.7C16.9,42,17.7,41.6,18.4,41z
		 M14.6,35h1.3c0.6,0,1.2,0.2,1.5,0.7s0.6,1,0.6,1.7v1.2c0,0.7-0.2,1.2-0.6,1.7c-0.4,0.4-0.9,0.7-1.5,0.7h-1.3V35z"/>
	<polygon class="st0" points="22.5,38.5 25.7,38.5 25.7,37.4 25.7,37.4 22.5,37.4 22.5,35 26.3,35 26.3,33.9 21.1,33.9 21.1,42 
		22.5,42 	"/>
	<path class="st0" d="M7,38.9h1.7c0.9,0,1.6-0.2,2.1-0.7c0.5-0.5,0.8-1.1,0.8-1.8s-0.3-1.4-0.8-1.8c-0.5-0.5-1.2-0.7-2.1-0.7H5.7V42
		H7V38.9z M7,35h1.7c0.5,0,0.9,0.1,1.1,0.4s0.4,0.6,0.4,1s-0.1,0.7-0.4,1c-0.3,0.3-0.6,0.4-1.1,0.4H7V35z"/>
	<path class="st0" d="M35.6,12.3h5.7L30.8,2v5.6C30.8,10.2,32.9,12.3,35.6,12.3z"/>
	<path class="st1" d="M35.9,51.8H9c-2.3,0-4.2-2-4.2-4.5v-1.4h20.1c3.9,0,7.1-3.6,7.1-8c0-4.4-3.2-8-7.1-8H4.8V6.4
		c0-2.5,1.9-4.5,4.2-4.5h20v5.7c0,3.6,2.9,6.6,6.6,6.6h6.6v10.4c0.6-0.4,1.2-0.7,1.8-1V12.8c0-0.3-0.1-0.5-0.3-0.7l-12-11.8
		C31.6,0.1,31.3,0,31.1,0H9C5.7,0,2.9,2.9,2.9,6.4v23.6H0v16h2.9v1.4c0,3.5,2.7,6.4,6.1,6.4h28.8C36.8,53.2,36.2,52.5,35.9,51.8z
		 M21.1,33.9h5.2V35h-3.8v2.5h3.3v0v1.1h-3.2V42h-1.4V33.9z M13.2,33.9h2.7c1,0,1.8,0.3,2.5,1s1,1.5,1,2.5v1.2c0,1-0.3,1.8-1,2.5
		c-0.6,0.6-1.5,1-2.5,1h-2.7V33.9z M5.7,33.9h3.1c0.9,0,1.6,0.2,2.1,0.7c0.5,0.5,0.8,1.1,0.8,1.8s-0.2,1.4-0.8,1.8
		c-0.5,0.5-1.2,0.7-2.1,0.7H7V42H5.7V33.9z M30.8,2l10.4,10.3h-5.7c-2.6,0-4.8-2.1-4.8-4.7V2z"/>
	<path class="st1" d="M9.9,37.4c0.2-0.3,0.4-0.6,0.4-1s-0.1-0.8-0.4-1S9.2,35,8.7,35H7v2.8h1.7C9.2,37.8,9.6,37.7,9.9,37.4z"/>
	<path class="st1" d="M17.4,40.2c0.4-0.4,0.6-1,0.6-1.7v-1.2c0-0.7-0.2-1.2-0.6-1.7S16.5,35,15.9,35h-1.3v5.9h1.3
		C16.5,40.9,17,40.7,17.4,40.2z"/>
	<path class="st1" d="M52.1,26.7c-0.3-0.6-0.8-0.7-0.9-0.6c-0.5,0-0.8,0.4-0.9,0.7L48.8,31c-0.5,0.3-2.3,1-2.9,1.1
		c-0.5-0.5-1.4-2.1-1.6-2.6l1.5-4.3c0.1-0.4,0-0.9-0.3-1.1C45.3,24,45,23.7,44.4,24c-0.1,0.1-0.3,0.1-0.4,0.2
		c-0.6,0.3-1.2,0.6-1.8,1c-1.5,0.9-2.8,2.1-3.3,3.5l-0.2,0.4c-0.9,2.6,0.1,5.4,2.3,6.9l-4.9,12.5c-0.3,0.9-0.3,2.1,0.3,3.2
		c0.4,0.7,1.1,1.3,2.1,1.7c0.2,0.1,0.3,0.1,0.5,0.1c0.3,0.1,0.6,0.1,0.9,0.1c0.9,0,1.6-0.3,2-0.6c0.8-0.6,1.3-1.4,1.6-2
		c1.2-4.3,3.1-11.1,3.7-12.9c0.2,0,0.4,0,0.6,0c0.9,0,1.8-0.2,2.6-0.6c1.4-0.7,2.5-1.9,3-3.4l0.1-0.4C54.2,31.7,53.2,29,52.1,26.7z
		 M44,43.7c-0.5,1.8-1.1,4-1.9,6.9c-0.1,0.4-0.5,0.9-1,1.3c-0.6,0.4-1.3,0.5-2.1,0.2c-0.3-0.1-0.5-0.2-0.7-0.3
		c-1.4-0.9-0.8-2.7-0.8-2.7l4.7-11.8l0.2-0.5c0,0,0.1,0,0.1,0l1.5,0.5l1.8,0.6c0,0,0,0,0,0C45.4,38.9,44.9,40.6,44,43.7z M52.5,33.4
		l-0.1,0.4c-0.4,1.3-1.3,2.3-2.5,2.8c-0.7,0.3-1.4,0.5-2.1,0.5c-0.6,0-1.1-0.1-1.7-0.3L44,36.2l-1.2-0.4c-0.2-0.1-0.4-0.2-0.6-0.3
		c-2.2-1.1-3.3-3.6-2.5-6l0.2-0.4c0.3-0.9,1.1-1.8,2.3-2.6c0.4-0.3,0.9-0.6,1.4-0.9l0.4-0.2l0.7-0.4L44,27.1l-0.7,2.2
		c-0.1,0.3,0.3,1.1,0.7,2c0.5,0.9,1.2,1.8,1.5,1.9c0.6,0.2,4-1,4.2-1.6l1.5-4.3l0.5,1.2C52.6,30.6,52.9,32.3,52.5,33.4z"/>
</g>
</svg>
