<?xml version="1.0" encoding="utf-8"?>
<!-- Generator: Adobe Illustrator 21.0.2, SVG Export Plug-In . SVG Version: 6.00 Build 0)  -->
<svg version="1.1" id="Layer_1" xmlns="http://www.w3.org/2000/svg" xmlns:xlink="http://www.w3.org/1999/xlink" x="0px" y="0px"
	 viewBox="0 0 49 49.3" style="enable-background:new 0 0 49 49.3;" xml:space="preserve">
<style type="text/css">
	.st0{fill:none;}
	.st1{fill:#2D3142;}
</style>
<path class="st0" d="M12.9,12.1v-0.5C12.9,11.8,12.9,11.9,12.9,12.1L12.9,12.1z"/>
<path class="st1" d="M19.2,3.1c-2-2-4.7-3.1-7.6-3.1C8.8,0,6.1,1.1,4.1,3.1S1,7.8,1,10.6c0,3.8,2,7.3,5.3,9.2
	c2.4,1.4,5.2,1.8,8.1,1.1c1.8-0.5,3.5-1.4,4.8-2.7c1.2-1.2,2.1-2.7,2.6-4.4c0.3-0.9,0.4-1.8,0.4-2.7v-0.2c0-0.1,0-0.1,0-0.2
	C22.3,7.9,21.2,5.2,19.2,3.1z M20.7,11.1c0,0.7-0.1,1.4-0.3,2.1c-1,3.8-4.5,6.6-8.7,6.6c-1,0-2.1-0.2-3-0.5c-1.1-0.4-2-0.9-2.9-1.6
	c-0.2-0.2-0.4-0.4-0.6-0.5c-1.7-1.7-2.7-4-2.7-6.5c0-5.1,4.1-9.1,9.2-9.1c2.4,0,4.7,1,6.4,2.7s2.6,4.1,2.6,6.6
	C20.7,10.9,20.7,11,20.7,11.1z"/>
<path class="st1" d="M11.8,9.3c-0.3-0.1-0.6-0.2-0.9-0.4c-0.5-0.5-1-1-1.5-1.5C9,7,8.7,6.7,8.3,6.3C8.1,6.1,7.8,6,7.6,6
	C7.4,6,7.2,6.1,7.1,6.2C6.9,6.5,6.9,7,7.3,7.4C8,8.1,8.8,8.9,9.5,9.6c0.4,0.4,0.7,0.8,0.8,1.4v0.1c0.2,0.6,0.9,1,1.4,0.9
	c0.6-0.1,1-0.4,1.2-0.9c0-0.2,0.1-0.3,0-0.5C12.9,9.9,12.5,9.4,11.8,9.3z"/>
<g>
	<path class="st1" d="M21.2,31.1c0-0.5-0.4-1.1-1.1-1.1h-3.7c-0.7,0-1.1,0.5-1.1,1.1v1.2c0,0.5,0.4,1.1,1.1,1.1h3.7
		c0.5,0,1.1-0.5,1.1-1.1V31.1z"/>
	<path class="st1" d="M30.5,31.1c0-0.5-0.5-1.1-1.1-1.1h-3.7c-0.7,0-1.1,0.5-1.1,1.1v1.2c0,0.5,0.4,1.1,1.1,1.1h3.7
		c0.7,0,1.1-0.5,1.1-1.1V31.1z"/>
	<path class="st1" d="M38.6,30h-3.7c-0.7,0-1.1,0.5-1.1,1.1v1.2c0,0.5,0.4,1.1,1.1,1.1h3.7c0.5,0,1.1-0.5,1.1-1.1v-1.2
		C39.7,30.5,39.1,30,38.6,30z"/>
	<path class="st1" d="M38.6,37.8h-3.7c-0.7,0-1.1,0.5-1.1,1.1v1.2c0,0.5,0.4,1.1,1.1,1.1h3.7c0.5,0,1.1-0.5,1.1-1.1v-1.2
		C39.7,38.3,39.1,37.8,38.6,37.8z"/>
	<path class="st1" d="M29.4,37.8h-3.7c-0.7,0-1.1,0.5-1.1,1.1v1.2c0,0.5,0.4,1.1,1.1,1.1h3.7c0.7,0,1.1-0.5,1.1-1.1v-1.2
		C30.5,38.3,29.9,37.8,29.4,37.8z"/>
	<path class="st1" d="M16.4,37.8c-0.7,0-1.1,0.5-1.1,1.1v1.2c0,0.5,0.4,1.1,1.1,1.1h3.7c0.7,0,1.1-0.5,1.1-1.1v-1.2
		c0-0.5-0.4-1.1-1.1-1.1H16.4z"/>
</g>
<g>
	<path class="st1" d="M36.1,16.8c0,1,0.7,1.8,1.6,1.8c0.5,0,0.9-0.2,1.2-0.5s0.5-0.8,0.5-1.3c0-2.7,0-5.5,0-8.2c0-1-0.7-1.8-1.6-1.8
		c-0.9,0-1.6,0.8-1.6,1.8c0,0.7,0,1.4,0,2.2v1.3h-1.4c-0.4,0-0.7,0-1.1,0c-0.4,0-0.9,0-1.3,0c-0.1,0-0.1,0-0.2,0v3h3.9
		C36.1,15.1,36.1,16.8,36.1,16.8z"/>
	<path class="st1" d="M24.4,16.8c0,1,0.7,1.8,1.6,1.8c0.5,0,0.9-0.2,1.2-0.5c0.3-0.3,0.5-0.8,0.5-1.3c0-2.7,0-5.5,0-8.2
		c0-1-0.7-1.8-1.6-1.8s-1.6,0.8-1.6,1.8c0,0.7,0,1.4,0,2.2v1.3h-0.1l0,0c0,1-0.2,2-0.5,3h0.5V16.8z"/>
	<path class="st1" d="M46.8,12.3c-1.1-0.1-2.1-0.1-3.2-0.1c-0.4,0-0.8,0-1.2,0V15h3.8v7.9H14.7c-1,0.3-2,0.4-3,0.4
		c-2.1,0-4.1-0.6-5.8-1.6c0,8.1,0,16.3,0,24.4c0,1.9,1.3,3.2,3.2,3.2c5.4,0,10.7,0,16.1,0c0.5,0,1.1,0,1.6,0h1.4h1.6
		c5.4,0,10.7,0,16.1,0c1.9,0,3.2-1.3,3.2-3.2c0-4.9,0-9.8,0-14.7v-5.5v-0.5c0-3.3,0-6.7,0-10C49.1,13.8,48.1,12.5,46.8,12.3z
		 M46.2,25.9v4.5v16H29.1h-3.2H8.8V24.7h37.4V25.9z"/>
</g>
</svg>
